<?xml version="1.0" encoding="UTF-8"?><svg id="Layer_1" xmlns="http://www.w3.org/2000/svg" viewBox="0 0 800 800"><defs><style>.cls-1{fill:#fff;}</style></defs><path class="cls-1" d="M753.05,224.93c-.17,11.46-8.11,8.29-13.87,11.13-10.1,4.98-22.12,12.13-31.1,18.9-3.59,2.71-10.38,11.86-12.95,12.82-3.09,1.16-4.88-2.63-10.13,2.06-8.62,7.7-3.25,11.91-4.35,17.64-7.8,40.41-14.6,84.01-31.51,122.54-7.66,17.45-13.82,22.38-27.08,34.93-12.42,11.76-25.74,25.19-38.97,37.01-4.61,4.12-20.8,13.17-22.69,17.44-3.93,8.81-.05,19.32-3.33,28.45,11.08,14.67-.92,29.06-1.91,42.37-.77,10.47.59,25.22-.04,35.61-.54,8.99-6.6,18.63-6.06,28.15s5.72,15.24,2,24.95c8.32-5.27,9.43,2.58,15.44,5.54,8.65,4.27,41.18,10.67,45.51,18.48,1.26,2.28,2,7.63.7,9.69-.58.92-17.55,8.84-19.65,9.32-10.43,2.38-27.43-2.04-22.03,14.96-5.81,2.46-11.67-2.63-14.97-3-3.9-.44-7.8,2.03-13.54.55-1.94-.5-12.65-7.06-13.26-8.88-1.69-5.05,2.41-10.01,1.89-13.42-.08-.51-1.53-.75-2.89-7.84-2.39-12.45-8.42-16.77-10.37-25.26-7.8-33.9,1.22-87.94,3.22-123.04.19-3.4.88-15.7-1.28-17.3-11.69-.8-25.63-.65-36.6,3.4-17.14,6.34-22.43,8.73-43.31,6.93-4.42-.38-6.8-3.7-9.79-3.9-1.89-.13-16.39,3.32-16.85,4.05l-13.95,120.43c3.89,3.62,7.1,7.45,11.89,10.02,8.86,4.77,48.77,15.14,50.83,19.25,1.37,2.73,1.86,7.67.09,10.17-1.44,2.03-43.72,12.24-48.11,12.02-1.4-.07-15.75-4.24-16.47-4.7-1.35-.85-18.67-22.18-20.18-24.82-8.66-15.19-3.37-15.24-2.39-29.67,1.72-25.35,2.36-50.75,3.99-76.06.69-10.66,6.41-37.34,3-44.88-1.06-2.35-5.2-5.08-7.55-6.44-4.69-2.71-19.2-7.46-24.96-9.09-33.76-9.54-51.99-16.49-83.8-34.15-5.97-3.31-9.85-7.58-14.67-11.04s-8.28,1.14-10.89,4.79c-14.3,19.98-23.72,67.06-29.74,92.26-2.24,9.39-4.38,38.05-11.28,42.72-9.28,6.28-7.31-3.46-9.11-6.96-4.31-8.4-42.66-48.47-51.11-53.02-1.88-1.01-4.95.65-5.95-.08-1.77-1.29-2.35-6.41-4.76-9.13-16.95-19.05-44.29-28.31-64.64-43.43-7.59-2.3-6.08,2.3-7.04,2.85-8.19,4.78-4.41-5.17-5.54-10.21-.7-3.14-3.97-5.92-4.01-8.15-.1-6.63,15.51-7.89,19.94-10.09s8.78-6.98,13.06-8.94c36.38-16.67,79.82-24.73,115.76-42.24,15.48-7.54,29.53-32.12,44.87-43.68,6.34-4.78,19.46-9.83,24.33-15.11,3.37-3.65,4.9-10.77,9.65-14.91,19.92-17.32,70.06-49.9,93.86-63.58,16.5-9.49,63.6-34.44,80.19-37.89,13.29-2.76,11.3,1.31,28.45-5.54,2.3-.92,7.04-.52,7.72-1.2,2.79-2.77-1.04-16.44.63-19.38.4-.71,9.71-7.1,12.64-10.36,27.08-30.21,59.19-60.46,100.87-69.14,53.01-11.04,80.66,37.4,96.07,80.16,11.14,2.66,25.8,2.68,36.56,5.44,8.66,2.23,12.4,10.73,21.49,9.52ZM573.77,216.17c6.73,4.75,22.79,11.54,30.44,12.75,1.35.21,19.82-.51,20.77-.94,2.2-.99,9.81-9.3,10.1-12.11.47-4.56-3.24-8.54-3.62-12.4-1.41-14.57,11.16-30.56-11.94-34.01-21.15-3.16-50.63,8.68-55.96,30.99-2.34,9.82,2.88,8.33,7.26,11.78,1.37,1.08,1.86,3.17,2.95,3.94ZM565.04,242.94l-5.98-2.02c-.22,5.58,3.93,8.03,5.98,2.02ZM467.03,292.94c-3.74-.31-8.79-.56-9.99,3.96l9.99-2v-1.96ZM577.03,292.93c-10.33-.07-13.82,1.09-11.97,11.99,2.02-.77,15.02-9.3,11.97-11.99ZM299.05,456.93c-5.18,4.5,21.15,14.68,23.43,15.55,63.65,24.16,124.61,38.14,190.53,13.42,42.85-16.07,88.24-61.44,107.02-102.98,5.05-11.16,24-63.84,20.79-72.74-17.91-12.5-40.39-11.28-61.61-15.08-2.7,10.26-12.81,19.27-19.04,27.96-5.88,8.19-11,18.55-17.48,26.61-4.71,5.85-25.3,22.9-26.65,25.26-3.03,5.28.4,12.28-7.92,20.07-7.02,6.57-11.39.91-16.46,4.51-3.65,2.59-6.41,12.33-9.44,15.59s-7.42,3.09-8.62,4.38c-4.04,4.32.97,7.66-12.54,7.47l-1-6.02c-15.97,8.55-33.07,18.64-50.55,22.5-14.21,12.88-44.32,11.05-63.81,12.25-15.65.96-30.68,3.64-46.65,1.25ZM553.04,318.94c-3.78-.66-6.66,2.33-5.98,5.98l5.98-5.98ZM149.04,454.94c-10.69.22-19.69,8.37-29.91,11.07-12.85,3.4-27.43.52-38.05,9.91,3.18,2.11,14.03,13.13,16.59,12.74s10.36-8.08,13.99-10.12c12.73-7.16,27.04-12.43,37.38-23.6ZM139.01,514.92c.27-.24,0-4.39,1.93-7.02,3.33-4.55,9.64-8.01,12.1-13.97l28.03-25.97c3.2-1.58.25-4.86-1.08-5.04-6.12-.82-31.85,20.19-40.72,21.26-4.17,4.73-22.25,13-17.95,20.43.53.91,15.56,12.22,17.69,10.32ZM211.03,478.93l-42.87,30.12c.37,3.92-7.12,14.05-7.09,14.88.07,1.82,7.8,3.73,7.96,6.97-9.43,2.93-7.28-6.02-13.99-5.97-1.71,9.26,4.99,11.46,10.52,16.02,1.29,1.06,2.78,8.16,5.47,2.74s4.84-15.08,8.43-21.42c3.3-5.82,11.73-12.08,13.74-14.64s2.9-11.36,5.76-15.24c1.43-1.94,15.35-10.06,12.05-13.46ZM195.06,552.92c3.67-3.37,6.24-11.98,8.02-16.96,1.06-2.96,2.42-5.77,1.94-9.04-8.09,5.91-10.86,16.5-9.96,26ZM197.03,554.93c-5.21,1.85-8.76,1.72-13.97,0,1.8,6.09,4.09,14.54,11.98,14l2-14Z"/><path class="cls-1" d="M614.55,208.42c-6.78,6.47-17.28.93-19.2-6.92-.48-1.96,5-19.77,5.87-20.38,5.21-3.63,20.44,10.24,19.04,15.81-.24.95-5.25,11.05-5.71,11.49Z"/></svg>