<?xml version="1.0" encoding="UTF-8"?><svg id="Layer_1" xmlns="http://www.w3.org/2000/svg" viewBox="0 0 800 800"><defs><style>.cls-1{fill:#fff;}</style></defs><path class="cls-1" d="M465.65,22.55c.56.56-1.16,4.47-.76,6.3.96,4.41,8.65,17.6,11.21,22.19,27.56,49.61,75.74,85.88,108.68,131.24,1.15,1.59,1.29,4.68,1.75,5.05,1.05.86,4.4-.18,6.25.58,12.25,5.04,4.73,7.61,4.22,12.72-2.62,26.55-1.52,57.45-3.35,85.27-1.31,19.85-1.64,45.54-4.27,64.47-.78,5.61-5.07,8.45-1.62,15.95-3.98,3.04-2.65-8.7-6.09-4.57-1.19,1.42,5.56,9.6,5.58,14.21,0,1.33-1.61,14.18-1.93,14.86-1.77,3.69-5.02,1.22-5.18,1.49-1.4,2.43,3.78,5.17,3.03,6.09-.13.16-3.11-.3-3.13.8-.05,2.18,2.34,3.88,2.45,6.01.28,5.63-2.91,23.14-3.78,30.61-5.34,45.56-17.26,91.29-18.81,135.99-1.14,33.05-6.22,65.36-7.44,97.73-.35,9.27,5.11,26.43-3.68,33-1.96,1.47-5.22,1.24-5.42,1.44-.66.65,4.08,13.67.83,18.38-.94,1.36-4.82,1.61-6.98,3.71-12.01,11.66-30.48,31.51-41.21,44.34-5.9,7.06-2.83,5.52-10.85,12.07-1.77,1.45-2.61,5.36-3.95,5.61-2.46.46-5.79-1.63-8.75-1.52-11.93.42-14.95,2.22-28.77-.52-13.12-2.6-9.41-.94-21.79-1.02-6.31-.04-13.97-3.43-19.23-3.95-6.83-.67-18.37,1.33-24.72.44-18.98-2.66-30.51-2.86-49.3-4.22-18.06-1.31-17.42-6.89-30.94-13.37-12.6-6.04-32.88-7.26-41.55-16.52-7.34-7.83-8.34-27.62-9.94-38.86-2.24-15.76-3.65-29.52-7.43-46.25-2.81-12.42-4.91-35.85-6.56-49.79-.67-5.65-.33-13.18,1.05-18.64l-3.03,1.55c.57-4.33-1.67-9.17-2.08-13.01-.37-3.48-1.33-15.47-1.07-18.15.06-.58,9.49-5.45-1.45-5.53,4.33-6.52-2.64-8.96-4.2-13.35-2.78-7.87-2.04-20.45-3.34-28.77-1.36-8.68,2.31-6.03,2.94-6.79,2.52-3.08-2.6-3.01-2.76-3.22-1.37-1.73,2.97-4.53,2.97-8.21,0-3.18-3.49-6.65-2.73-10.94,3.09-17.45-.89-44.98-1.73-64.16-1.28-29.27-.72-59.97-1.95-88.27-1.87-43.07-7.63-86.15-6.63-129.41,13.45-21.85,31.49-40.7,51.99-56.26,15.4-11.7,34.08-19,49.52-29.92,12.57-8.89,24.91-17.87,37.56-26.6,13.25-9.14,26.57-26.37,39.89-34.9,5.99-3.84,13.57-5.55,19.5-9.66,1.91-1.33,18.72-16.1,19.41-17.2,1.58-2.54,1.22-6.66,1.47-6.92,1.34-1.37,9.8,1.37,12.57,1.14,4.17-.35,9.13-4.16,14.15-4.32,1.4-.05,11.02,1.2,11.43,1.61ZM433.52,68.38c-5.19-1.18-2.2,4.52-3.36,8.08-.64,1.97-4.35,6.15-5.83,9.44-1.08,2.38-4.3,12.31-4.79,12.85-.59.67-3.4-.58-4.41,1.15-1.33,2.29-.68,7.58-1.57,10.09-.22.63-6.42,8.11-7.82,10.81-2.5,4.82-2.53,12.39-7.49,15.5-1.43.89-4.3.68-4.46.84-.65.63,2.52,6.58,1.52,7.59-.33.34-3.89-.43-5.35,1.51s-3.5,14.56-4.1,15.13c-.7.67-3.53-.22-4.06.33-.75.78-4.99,15.85-7.02,19.81-2.77,5.4-7.83,10.78-10.33,15.64-2.19,4.25-2.78,11.3-5.1,14.76-1.71,2.55-5.13,3.18-6.73,5.63-1.81,2.76.45,5.46-.81,8.08-3.44,7.15-7.11,4.49-10.12,16.03-2.01,7.68-.19,5.09-.29,7.75-.06,1.61-5.91,4.49-4.15,8.4,16.79-3.32,33.24,1.57,49.67,3.05,20.38,1.83,40.75,3.24,60.52,5.54,11.63,1.35,23.3,2.47,34.93,3.69,1.05-1.06-1.37-15.99-1.94-18.68-5.46-25.9-13.61-52.79-17.68-78.72-.62-3.97,3.26-4.49,2.85-8.02l-4.56,1.54-27.5-97.8ZM402.98,77.54c-8.2-.9-8.49,6.24-11.15,8.7-3.76,3.48-9.9,6.28-14.02,9.65-37.23,30.4-76.1,59.4-114.06,89.13-2.07,1.62-11.47,5.64-12.04,7.87l55.89,54.13c4.24.9,7.61-13.13,11.63-15.65,16.66-43.48,40.05-85.07,68.41-121.45l15.34-32.38ZM491.84,136.79c-2.01-1.74-12.2-17.32-15.8-21.54-1.08-1.27-2.94-4.94-2.69-.38,5.32,17.09,10.56,34.21,15.95,51.28,2.68,8.48,4.76,16.66,7.23,24.85,1.22,4.07,6.19,12.25,6.93,16.12,1.08,5.64-.36,4.16,1.71,10.65,1.89,5.91,3.75,16.57.1,21.73,8-1.39,1,4.58,6.14,9.93,0,.5-10.1,1.71-2.33,3.82l46.19-41.58c2.76-7.5-12.36-15.82-16.43-21.74-1.65-2.4-1.16-6.37-2.95-7.74-4.2-3.22-12.82-4.32-18.45-12.11-9.99-13.8-12.4-21.86-25.61-33.29ZM242.03,221.59c-.55-.52-3.95-2.21-4.08-2.03-2.27,7.47,0,13.95.05,20.56.19,26.08.26,53.96,3.1,77.87.95,7.99.42,18.82-4.73,25.3l6.1-1.51c-1.42,6.05,1.44,13.92,1.29,19.14-.09,3.21-2.77,6.17-2.45,8.89.24,2.01,2.76,4.03,2.67,6.36-.16,4.14-6.35,4.51,1.54,11.43l-4.58.77c6.65,5.98-.7,1.22,0,6.88,10.17-4.56,2.05,6.42,2.02,8.43-.02,1.29,4.27,4.47,4.2,9.18s-4.99,7.7-4.8,10.59c.09,1.3,10.85,3.18,3.47,12.05,6.57,13.71,5.13,29,7.28,43.8-2.68-1.7-5.08.22-6.1,3.04l6.1-1.51c1.28,1.71-.99,11.65-.76,14.52.95,11.86,5.59,25.76,4.67,38.27-.11,1.53-2.93,2.83-2.35,3.69.12.17,2.18-.22,2.58.37,1.67,2.41-.12,12.01-4.15,12.66,1.29,3.37,5.71.29,6.1.77,1.1,1.39-1.93,19.13-1.7,22.22.04.53,1.74,5.41,2.39,9.16.16.91,5.21,14.74-.68,9.84-.2-.17.18-2.76-.77-3.06-5.09-1.63-3.11,1.84-3.89,3.42-1.03,2.08-3.51.28-2.99,2.71,17.27-.61,7.52,10.84,15.25,19.13l-4.59.76,1.54,4.56-6.1.77c5.28,3.55,8,.52,9.17,8.4-11.71,1.1-.17,3.34,0,3.85,1.12,3.32-4.99,2.04-3.06,3.78.8.72,5.14,1.33,6.09,3.85l-4.6.77c1.73,3.56,2.82,7.65,2.97,11.59.2,5.36-.26,9.32.76,14.43s2.89,9.83,3.42,14.91c.79,7.48-3.88,16.82,3.55,19.41-5.57.39.28,9.62,1.35,13.89,1.1,4.38,1.19,12.41,3.25,16.24,2.35,4.38,18.31,8.88,22.12,13.38,4.41-3.16-.49-8.81-.68-13.17-.4-8.94.92-21.75.68-30.32-.69-24.61-7.22-54.69-6.52-79.47.16-5.61,3.98-12.43,4.05-16.77.08-4.68-3.71-11.87-4.37-16.82l3.06.76,3.06-12.23-6.12,2.27c2.17-13.52-2.15-31.75.93-45.22.46-2.01,3.17-3.95,3.19-5.16,0-.58-2.48-3.67-2.67-7.55-.82-17.37,1.28-42.14,2.86-59.7.44-4.96-3.75-7.13,4.93-10.68-8.28-2.91-3.5-10.93-3.64-17.06-.9-38.81-.53-76.96-.98-115.79-.1-8.4,1.78-30.19.1-36.41-.31-1.17-8.81-5.97-10.77-7.9-11.24-11.06-24.55-23.64-35.1-35.17-4.08-4.46-8.88-13.51-12.67-17.11ZM280.69,242.49c.41-2.48-1.04-4.18-2.43-5.95s-7.11-7.37-9.76-7.79c-1.8,1.9,10.06,12.54,12.2,13.75ZM569.46,233.43l-50.43,57.27,3.04,3.04c-3.3,7.7-11.5,4.97-12.07,5.4-3.91,2.98-3.18,36.57-3.65,43.43-2.35,34.04-5.14,69.03-8.25,101.12-.21,2.15,1.5,4.6.8,7.06-.62,2.2-4.01,3.6-4.25,5.12-.06.41.84,3.66.68,7.35-2.14,50.62-7.34,100.76-10.1,151.27-.51,9.27,1.45,35.06-.49,42.12-7.05,25.7-3.66,50.77-6.22,76.9-.32,3.28-3.24,7.69-2.42,11.66.44.6,11.18-7.19,12.24-8.37,6.98-7.74,13.25-15.22,20.37-23.17,1.96-2.19,7-4.31,8.71-7.33,3.13-5.5,1.02-21.39,1.54-29.02,2.58-38.39,9.49-79.62,12.96-119.15,4.06-46.35,3.88-93.66,10.85-140.03.66-4.42,6.88-19.35,6.85-20.43-.03-.78-2.82-.64-3.12-1.83-2.18-8.6,5.36-37.78,6.6-48.14,1.12-9.36.77-20.71,2.08-30.05,3.97-28.29,10.57-56.03,14.27-84.25ZM302.08,259.34c-.19-.21-2.58-.39-3.77-1.52-2.12-2.01-14.08-15.53-16.07-13.78,4.64,4.31,12.28,16.01,17.58,18.31,2.53,1.1,3.09-2.08,2.26-3.01ZM482.17,285.52c-1.93-1.24-19.11,2.65-23.42,2.92-33.68,2.14-76.61-2.98-111.51-4.64-5.41-.26-11.53-3.04-17.51-1.44l-3.24,93.05-4.58-.75c-.91,3.56,3.57,1.96,4.34,4.69,1.36,4.86-1.3,23.39-1.29,28.91,0,2.6,1.54,5.2,1.53,7.65,0,2.24.26,14.26,0,15.12-.57,1.92-5.83.49-6.12,3.95,5.95-2.39,6.14,8.64,6.12,12.9,0,1.7-6,.5-6.13,3.91,13.54-.48,5.58,7.62,5.02,13.19-.21,2.12-.47,12.94-.41,15.26.1,3.52,4.24,2.92,4.65,4.71.68,2.99-1.61,13.63-1.14,17.78.37,3.26,7.94,13.07-2.02,11.72-1.96,4.15,3.08,4.93,3.05,5.27-.21,2.05-4.06,7.07-4.24,9.5s2.4,4.69,2.66,7.54c.64,7.01-1.15,12.39-6.07,17.38,1.47.3,5.67-.43,6.12,0,.75.72-.76,15.5-.66,19.02.1,3.75,2.6,9.94,2.26,12.14-.16,1.05-3.19.89-3.22,1.8-.05,1.53,1.94,3.84,1.72,5.86-.11.97-3.1.81-3.25,1.86-.51,3.44,3.27,10.34,3.12,14.33l-6.08-6.11-1.57,8.38,4.59-.74c-.51,3.37.83,8.22.03,11.23-.37,1.37-2.8.88-2.95,1.09-2.21,3.07,1.98,2.87,2.41,3.44,1.81,2.4.87,11.74,1.01,15.94.2,5.66-.34,8.93-.26,13.32.16,9.2,4.87,21.38,4.51,30.68-.12,3.03-3.47,1.98-3.25,2.95.52,2.32,3.33,3.92,3.24,9.23-.11,6.19-5.48,8.13-1.39,15,1.4,2.36,4.06,1.69,4.41,4.84.57,5.13-2.86,3.65-3.97,5.31-.99,1.5,1.92,17.06,2.57,18.08.3.46,8.53,3.9,10.07,4.45,9.56,3.45,34.8,6.78,45.66,7.5,12.61.84,24.69-3.71,37.17-.17,6.25,1.77,14.97,8.94,21.28,2.87-2.37-25.85.3-51.68,1.77-77.61,5.27-92.38,10.25-186.64,21.53-279.54,3.17-26.09,9-52.58,11.93-78.24.62-5.47,4.09-33.88,1.5-35.55ZM577.04,396.9h-3.04s0,4.57,0,4.57h3.04s0-4.57,0-4.57ZM250.07,473.19l-4.57.75c1.39,1.62,2.32,2.79,4.57,2.29v-3.04ZM240.87,600.01c-.2-.24-5.77-1.91-6.1-1.55v4.57s6.09,0,6.09,0c-.09-.94.24-2.73,0-3.02ZM245.44,609.16l-4.57.75c1.39,1.62,2.32,2.79,4.57,2.29v-3.04ZM246.96,618.32c.51-2.89-1.78-5.09-4.57-4.57l4.57,4.57ZM267.25,680.3l-2.11,8.25,3.15.81,2.11-8.25-3.15-.81Z"/><rect class="cls-1" x="325.64" y="683.27" width="15.26" height="1.54" transform="translate(-350.98 1016.88) rotate(-89.96)"/></svg>