<?xml version="1.0" encoding="UTF-8"?><svg id="Layer_1" xmlns="http://www.w3.org/2000/svg" viewBox="0 0 800 800"><defs><style>.cls-1{fill:#fff;}</style></defs><path class="cls-1" d="M392.03,34.43c.73,3.42-1.16,12.19.27,14.42.31.48,4.43,1.5,6.14,2.78,48.83,36.35,66.46,91.87,72.66,150.62.88,8.31-1.21,34.85-3.44,42.56-1.37,4.72-6.79,10.14-8.42,14.08-7.28,17.6-17.11,48.31-34.73,58.16-2.86,1.6-11.2,2.55-11.37,3.5l35.96,227.22,28.72-56.81,29.92-45.06c1.17-4.38-4.58-1.1-4.95-3.26-.68-3.99,1.83-9.85,1.86-14.65.35-63.49,29.13-138.53,59.26-194.81,10.4-19.43,25.29-37.77,35.72-57.17,13-24.19,18.46-42.46,35.31-65.73,1.78-2.46,1.14-5.89,3.19-8.21,1.61-1.81,11.6-5.46,13.03-4.07.21,2.39-1.17,4.67-1.02,7.04,2.89,44.53,15.68,79.03,12.93,124.35-.26,4.22,3.06,8.89-.51,13.63,11.89-.87.81,10.97-.84,16.28-4.86,15.68-1.97,37.36-6.09,55.84-5.73,25.74-25.24,81.19-43.63,99.78-2.03,2.05-6.85,2.9-9.63,5.04-19.75,15.24-32.27,27.95-56.76,36.13-3.28,1.1-17.3,3.13-18.02,3.98-.59.69-.61,5.64-2.1,8.48-1.76,3.34-6.42,5.93-8.67,9.26-4.69,6.96-19.66,34.76-24.93,37.03-1.62.7-4.85.01-5.33.37-.52.39,3.04,5.66.36,12.58-2.18,5.62-9.54,13.92-11.65,18.11-4.79,9.49-4.65,16.24-12.1,25.76-1.26,1.6-4.74,2.41-6.07,4.51-1.96,3.09-.88,6.44-2.39,9.1-.67,1.17-3.59,1.14-4.03,2.77-2.06,7.76,2.08,11.78,2.94,16.48.44,2.41-.71,4.6-.43,5.98,2.03,10.05,10.44,24.93,4.08,34.27,1.09,2.99,4.71.55,4.84.8.56,1.09-1.16,4.09-.84,5.71.38,1.97,2.84,5.84,3.84,8.6,2.19,6.04-1.09,11,10.12,7.76,1.83-8.21,16.09-19.91,17.64-26.54,1.18-5.02-8.73-7.09,2.9-14.83,40.72-27.13,60.65-57.71,114.31-69.85,26.31-5.95,96.6,4.42,120.55,17.06,3,1.58,3.38,4.91,5.65,5.84,6.62,2.72,16.94-.15,22.41,8.4-6.09,2.48-13.08,11.89-14.47,18.19-.66,2.98,3.12,1.98,3.18,3.01.32,4.78-14.57,15.88-18.81,18.79-1.98,1.36-5.51,1.45-5.71,1.66-.52.54,1.62,3.48.82,4.83-.24.41-6.16,6.01-6.88,6.56-23.65,18.07-55.11,31.25-80.03,43.81-7.39,3.73-14.74,1.79-21.45,5.87-1.36.83-1.37,3.38-1.87,3.77-.28.22-4.68-1.47-7.03-1.49-11.64-.09-22.45-2.68-30.97-3.02-16.4-.66-34.62-2.71-53.5-10.29-4.48-1.8-17.53-10.67-18.59-10.83-.99-.15-14.83,11.12-15.17,12.04-1.24,3.29,4.59,1.23,3.29,6.51-.1.39-6.41,1.41-3.31,4.05.77.66,6.65-1.38,4.11,1.65-7.02,4.96-11.46,14.4-20.37,6.51,4,10.27,3.27,21.96,3.68,32.97.2,5.39,4.81,10.24-1.25,17.55-6.04,7.28-14.79-2.49-16.62-9.27-.65-2.41,3.84-6.14-2.12-5.42l3.25-1.62c.46-.55-11.63-8.15-1.65-9.79v-1.58c-1.9-.1-3.76-.69-4.52-2.64-1.88-4.81-4.34-26.43-4.92-32.8-.48-5.24,4.82-7.82-3.59-6.98l1.65-4.87-85.81-34.25c-6.49-1.05-11.62,10.11-17.94,14.42-19.49,13.27-62.63,21.38-86.34,24.48-46.38,6.06-105.81-.97-150.49-15.27-10.4-3.33-12.43-3.69-18.32-12.72-.98-1.51-.6-4.51-1.69-5.59-1.37-1.35-7.09-.54-7.11-6.13-.04-9.13,17.77-17.55,23.86-22.78,12.61-10.84,25.49-27.16,39.24-37.36,5.68-4.21,12.69-5.6,17.02-9.06,2.85-2.27,3.58-5.67,6.82-7.85,7.65-5.15,44.64-15.44,53.18-14.69,11.56,1.01,28.35-2.18,40.77.21,4.68.9,10.98,6.13,15.19,7.04,10.85,2.37,28.3.33,38.87,8.65,5.39,4.24,12.77,12.07,17.97,16.25,7.88,6.35,21.06,13.9,26.81,22.51,7.29,10.92-1.67,14.02-1.62,15.89.15,4.8,22.4,8.08,26.38,9.44,8.15,2.78,20.71,7.27,28.2,10.92,8.61,4.19,15.67,11.25,25.2,13.91,14.59,4.07,5.56-3.48,3.81-10.27-5.55-21.54-3.64-55.76-10.53-75.95-.26-.77-9.03-11.07-9.28-11.84-.69-2.09.42-5.78-.5-6.86-.46-.53-3.55-.27-5.35-1.91-24.37-22.23-36.75-66.82-67.78-83.83-2.49-1.36-5.93-.48-9.04-2.38-4.05-2.48-2.71-7.26-11.67-9.49-39.68-9.91-65.78-14-101.32-37.21-45.94-30-84.65-66.02-124.03-104.56-12.63-23.53-34.95-46.24-42.41-71.23-1.58-5.29-.95-10.66-2.77-15.16-3.35-8.27-16.68-11.84-11.55-27.05,2.7-8.01,6.97-1.35,7.47-1.17,3.95,1.44,7.88.99,12.4,3.61,13.86,8.06,18.6,10.75,34.94,15.57,2.44.72,5.09,3.3,6.38,3.5,2.67.41,7.95-6.85,11.48-7.68,4.76-1.11,9.2,8.56,15.06-1.85-.13,2.17-1.27,3.77-.44,6.04,3.01,8.24,29.41,17.5,38.24,22.16,12.94,6.84,25.5,14.35,38.54,20.94l.27,6.27c2.3-1.07,3.58-1.32,6.11-.62,5.48,1.51,25.91,12.63,30.94,15.69,1.3.79,2.43,5.67,4.92,7.77,7.88,6.67,23.4,14.62,32.2,21.12,11.29,8.34,34.14,35.86,42.46,47.17,14.76,20.06,31.52,33.48,41.84,57.56.95,2.21,3.93,4.01,4.25,5.54.53,2.58-4.17,5.87-2.79,10.81.73,2.61,4.37,3.88,5.42,6.11,6.43,13.6,12.02,31.66,21.45,43.81.9,1.16,3.3,1.54,3.62,2.09.47.81-1.78,6.98.25,9.46l6.5-1.63c-3.28,7.76-.08,3.3,3.2,5.69,1.9,1.38,1.76,4.72,3.27,6.64,1.21,1.54,4.18,1.9,4.61,2.64,1.45,2.46-.87,7.94,1.08,11.16l7.39-.08c-5.21-8.37-2.4-16.23-3.27-25.23-2.79-28.92-4.88-61.31-14.58-88.09l-7.29-77.45c-2.3-9.61-16.57-12.8-24.29-18.08-8.47-5.8-17.44-14.71-21.31-24.32-4.39-10.91-2.84-11.88-9.74-22.78-4.37-6.91-12.12-60.86-12.38-70.8-1.05-39.66,10.51-78.62,31.56-111.81,3.43-5.4,15.17-18.07,16.48-21.01,3.03-6.78-2.29-21.02,12.23-19.54ZM406.2,72.42c-1.74-1.42-12.97-6.7-14.16-5.39-.5,9.42-1.87,19.12-3.35,28.42-.4,2.53-2.94,4.34-3.07,6.57-.17,3.08,3.08,6.55,3.01,9.85-.28,13.33-7.02,30.18-7.09,47.23-.02,4.99,2.62,14.82,2.39,17.79-.12,1.55-3.97,1.6-4.93,3.41,7.8,2.05-.17,9.99.11,14.7.17,3.01,3.85,5.25,3.33,11.45-.28,3.33-4.79,1.81-3.43,4.79.7,1.55,4.05,2.86,4.63,5.23s-1.74,7.22-1.53,11.11c.19,3.45,4.35,11.44,4.54,14.84.57,10.12.68,15.52,1.96,26.05.82,6.72-1.94,19.23,4.13,23.57,2,1.43,7.87,3.62,7.13-.58-6.57-37.27-6.58-88.94-7.84-127.46-.67-20.52-3.49-63.5,2.36-82.4,3.98-12.85,9.66-4.25,17.21-1.55.34-.31-5.02-7.33-5.39-7.62ZM423,93.09c-.55-2.36-2.63-3.74-4.88-3.23v3.24s4.88,0,4.88,0ZM641.36,133.84c-3.27.69-12.12,14.89-5.69,14.63,2-.08,6.97-11.71,5.69-14.63ZM644.62,210.43c-.33-.32-3.55.2-4.87,0v11.43s6.5-.01,6.5-.01c-.6-1.85-1.21-11.01-1.63-11.41ZM590.64,268.81c.58-1-1.34-3.7-.69-6.22,2.34-9.09,10.85-19.85,12.26-30.2-.09-4.95-1.76-1.34-2.82.45-1.59,2.69-3.75,6.76-5.08,9.58-8.85,18.73-18.59,39.88-25.61,58.29-4.21,11.06-8.52,21.42-8.81,33.58l6.82-10.28c4.59-14.18,10.86-27.14,14.79-40.61,2.66-9.13,6.76-10.48,9.14-14.58ZM101.93,247.93c-4.51-4.36-3.67,12.45-3.15,12.95.35.34,6.25.08,8.05,1.71,1.47-5.43-4.16-2.44-4.88-3.27-.38-.44,2.94-8.54-.02-11.39ZM118.44,273.79c-.96-.61-4.89-10.93-9.96-9.56-1.02,4.4,4.52,4.43,5.81,6.54,1.11,1.81-1.06,4.56-.9,4.79.3.43,4.22.55,5.52,1.54,2.28,1.74,7.61,11.56,9.67,14.33,4.76,6.41,18.02,13.1,24.44,18.34,1.55,1.26.55,3.76,2.13,5.07,5.01,4.14,18.84,11.2,22.85,15.13,2.24,2.2,3.75,6.05,3.83,9.22.91.86,2.52-3.36,4.84-2.52,2.79,1.01,21.63,13.57,26.06,16.42,3.87,2.49,10.63,9.47,15.9,12.15l23.25,13.05c-2.72-6.57-10.33-8.71-14.65-12.25-7.37-6.04-12.11-13.22-19.85-17.51-6.88-3.81-6.75-5.44-10.54-9.1-11.3-10.92-25.07-15.63-36.95-28.04-5.74-5.99-3.73-2.7-8.63-6.27-1.49-1.09-1.75-4.23-2.59-4.82-.73-.51-3.5,1.33-6.72-.34-4.91-2.55-9.73-12.39-12.91-14.24-1.11-.64-3.42,1.21-4.56.56-3.16-1.79-2.1-12.05-10.91-13.61-1.92-.34-4.73,1.38-5.13,1.13ZM641.35,285.4c1.15-1.05.04-13.44,1.63-16.29-3.33.63-2.62,3.5-3.23,5.72-.45,1.63-3.3,15.03,1.59,10.57ZM160.64,290.29c4.89-1.67,2.9-5.05-1.65-4.87l1.65,4.87ZM629.98,332.66c7.22-8.57,9.92-27.67,10.61-39.1.1-1.62,1.49-6.4-1.67-6.5-2.37-.07-2.3,14.34-2.86,16.67-1.12,4.6-5.01,11.21-5.76,15.45-.56,3.17,1.87,9.09-.33,13.48ZM167.14,291.94l4.07,4.84c4.46-3.08.6-5.47-4.07-4.84ZM248.59,319.66c-8.47-1.6,5.9,15.26,9.81,12.99l-9.81-12.99ZM628.31,347.32c.99-1.07,1.76-7.7,1.63-9.77-4.18,1.32-3.31,6.29-3.23,9.77.52-.08,1.38.22,1.59,0ZM175.29,352.2c-1.17-2.65-3.58-5.39-6.52-4.86,1.17,2.65,3.58,5.39,6.52,4.86ZM191.58,361.98c-.55-2.36-2.63-3.74-4.88-3.23v3.24s4.88,0,4.88,0ZM198.09,363.63l-4.87.8c1.48,1.73,2.47,2.97,4.87,2.44v-3.24ZM540.31,402.73l11.41-39.09-6.97,15.01c-1.17,6.51-4.09,12.66-5.33,19.12-.32,1.68-2.14,5.34.89,4.96ZM310.55,432.06c-7.42-7.05-19.81-8.37-29.29-12.25-15.23-6.23-29.41-15.21-45.66-18.69l20.08,11.68c17.84,7.74,36.21,13.81,54.88,19.25ZM315.04,411.27c-.95-.31-6.25.05-7.67.25-2.8.41-4.85-.31-1.71,2.61.49.46,12.52,3.7,13.03,3.27,1.34-1.12-3.31-6.02-3.65-6.13ZM548.47,430.45h-3.24v4.87h3.24v-4.87ZM641.38,580.39l-9.76,4.06,11.37.8c-.6-3.38-4.89.31-1.61-4.86ZM191.58,583.64c-1.29.25-21-1.69-16.28,3.23,1.63,1.7,17.66,4.25,16.28-3.23ZM579.44,586.91c-3.25-1.76-10.18,4.57-8.14,6.49,1.65,1.55,7.37-4.19,8.14-6.49ZM708.18,591.8c-1.7-1.59-7.87-2.24-8.14,1.59h8.14c-.08-.53.22-1.38,0-1.59ZM727.74,601.56c-.79-.77-14.66,5.85-16.66,6.96-10.31,5.72,1.42,2.66,1.86,2.94.72.45.7,5.53,4.18,4.75,2.11-1.43,12.41-12.9,10.62-14.65ZM541.97,609.7c2.14,2.15,9.67-2.84,4.05-4.86-4.81-1.73-5.27,3.64-4.05,4.86ZM647.88,606.46c-13.94-1.05-27.77,1.54-41.12,5.31-4.47,1.26-8.35,4.27-12.36,5.56-7.55,2.45-18.84,3-24.74,8.65,3.46,1.03,8.07-2.95,10.63-2.65,1.59.19,3.15,3.3,4,2.67.17-.13,0-2.84,1.67-3.99,6.19-4.26,19.2-4.04,26.5-4.54l35.41-11.01ZM264.48,611.78c-2.26-1.52-47.25-3.59-54.09-3.77-16.24-.44-59.01-1.89-73.06,2.04-.78.22-12.18,8.37-13.15,9.3-3.33,3.18,6.5,8.01,9.67,8.36s1.32-3.62,4.58-3.38c4.47.32,9.36,4.63,13.16,4.73,3.28.09,6.97-2.45,10.25-2.66,30.93-2,63.39-.56,94.1-2.04,9.52-.46,18.53-4.82,28.52-1.62.79-4.89-1.17-2.63-3.95-3.3-3.5-.84-9.62-.95-12.34-2.42-2.33-1.26-2.46-4.4-3.69-5.23ZM685.36,612.98l-13.75.07-12.3,6.41c6.9,2.12,13.03.04,19.49-2.48,1.89-.74,6.54-1.74,6.56-4ZM541.95,621.12c-3.25-2.98-6.13,4.02-7.8,4.82-1.54.73-4.5.36-6.46,1.24-2.51,1.12-3.25,3.99-2.02,5.33.99,1.08,18.73-9.15,16.28-11.39ZM563.15,627.65l-21.73,10.03-14.11,13.56c2.18,5.23,14.5-2.89,19.54-.8l-1.62-4.87c7.39,4.3,6.33-1.11,9.76-3.88,1.63-1.32,9.68.41.01-5.07l8.14-8.97Z"/></svg>