<?xml version="1.0" encoding="UTF-8"?><svg id="Layer_1" xmlns="http://www.w3.org/2000/svg" viewBox="0 0 800 800"><defs><style>.cls-1{fill:#fff;}</style></defs><path class="cls-1" d="M155.81,190.85c5.64,11.19,10.14,23.64,16.18,34.59,7.33,13.3,4.53-4.45-1.93-9.65l7.08-.9c-1.56-6.56-6.32-3.13-9.78-6.19-1.42-1.25-3.78-7.47-4.44-9.82l7.1,7.98c6.43-6.29.26-14.91,7.14-19.57.51,16.03,3.39,29.08,8.2,44.02.51,1.6-.44,3.93.18,5.43.97,2.36,4.12,2.04,4.23,3.32.19,2.13-2.67,7.07-1.9,7.77,1.07.99,8.99-2.37,5.36,8.91,7.12-4.26,5.08,1.08,8.53,6.6,10.39,16.61,19.77,30.17,34.88,42.57,2.48,2.04,7.17,3.02,10.89,6.12,6.2,5.17,6.37,12.97,15.12,15.09.27,4.82-5.05-.6-9.63,2.58-1.78,1.24-1.2,1.68-1.03,3.6,6.8.65,10.59,6.39,15.13,10.68,5.31-10.78,19.98-27.86,11.72-39.73-1.92-2.76-7.21-1.53-8.14-6.53l-4.44,7.12c1.88-7.86-7.34-5.58-13-8.83-2.42-1.39-2.96-7.66-10.18-5.42-.24-13.13,8.39-3.03,8.9-3.55-1.61-10.97-11.73-4.96-16.81-5.39-13.3-1.12-10.38-11.76-13.93-19.96-1.39-3.2-14.69-20.24-12-22.73.87-.8,5.93,1.72,5.35-1.77-8.7-.11-6.23-4.91-9.12-9.55-9.44-15.15-12.48-32.83-20.23-49.27-2-4.25-7.02-7.61-7.76-10.17-.53-1.85,1-14.21,1.51-14.75s10.28,5.39,9.8-5.53c-.23-5.11-13.5-36.9-16.58-43.78-1.43-3.19-3.05-6.18-5.68-8.57,5.04-3.74,5.69,2.32,7.7,3.87,1.39,1.07,4.06.66,5.57,2.39,4.58,5.26,10.89,29.82,15.49,38,6.6,11.71,22.19,17.09,25.48,22.6,1.54,2.57.58,20.17,6.28,15.97.58-.43,5.46-16.63,8.92-6.22.55,1.65-3.59.13-3.61,1.77-.04,3.04,3.04,4.08,4.03,6.71,2.44,6.47,2.95,15.04,7.6,20.89-.02-13.28,4.35-7.33,6.23-8.9,3.44-2.89-3.35-3.64-3.59-4.71-1.03-4.6.75-11.62.05-16.66l7.1,3.54c-5.45-11.33,3.87-7.71,1.05,1.96-1.18,4.06-4.35,3.23-4.5,3.5-2.04,3.41,5.88,6.56,6.31,9.61.39,2.77-2.39,7.69-2.09,10.87.23,2.44,3.09,8.32,3.97,14.74.37,2.69,2.57,6.32,2.5,8.22-.03.86-6.9,1.28-3.68,4.53.27.27,5.13-.23,7.3,2.51,4.73,5.94.01,24.09,10.5,22.44l-3.55-4.43c7.36-4.97.73-8.79.35-12.78-.47-4.93,6.16-21.59,6.17-22.82,0-.79-3.58-7.26-3.92-11.54-.33-4.24,1.46-8.26.95-12.53-3.15-.72-2.88,11.13-7.08,7.11-.72-.68-6.51-17.73-6.47-18.72.04-1.28,2.74-2.88,2.61-5.03-.12-1.84-3.9-6.37-5.09-9.17s-3.15-11.16-3.56-11.6c-4.99-5.45-3.24,11.09-1.77,12.46-11,2.54-1.47-10.8-1.75-16.78-.05-1.17-3.46-.23-3.78-3.6-.94-9.77,1.51-21.15-.82-32.09-.4-1.88-12.65-33.72-13.58-35.4-1.54-2.79-4.52-2.13-5.75-6.27-1.34-4.48,1.44-10.46,3.42-14.48,9.15,4.48,4.23,5.87,5.61,10.67.8,2.77,3.12,9.42,5.96,10.69.74-7.11-2.61-13.87-3.37-20.67-.46-4.1,4.35-9.03-1.95-12.07-1.17-.57-3.45.84-3.55.69-1-1.68,2.25-8,1.78-10.68,11.29,2.34,6.56,11.61,7.28,16.73s3.78,22.93,5.56,26.51c1.67,3.34,5.93,4.29,8.53,7.49,3.82,4.72,3.45,10.37,6.19,15.05,2.01-2.28,7.1-.01,6.29-4.34-.15-.8-3.58-10.84-4.01-11.27-3.79-3.82-2.91-1.68-7.98-8.87-1.65-2.34-5.69-4.06-5.93-5.09-1.36-5.83,4.24-10.63,7.34-6.63,7,9.04,4.01,26.75,15.88,27.39l-3.63-2.66,2.79-6.24c2.74-.51,7.31,7.64,11.5.9l-7.08-6.23c26.19,1,8.52,8.64,8.9,9.78,1.9,5.68,8.02-2.48,10.49-.74.71.5,3.39,8.69,7.29,8.76-1-5.97,1.2-11.33,1.76-16.94,1.57-15.85,2.52-7.79,6.17-16.85.91-2.25-3.17-5.94,2.75-5.43-6.33-4.89.47-13.13,3.5-7.48,3.55,6.64,4.34,3.07,7.08,6.74,5.39,7.24,6.84,21.15,12.33,28.72l-3.3,7.66,5.37.02c-1.51,3.81-3.82,5.94,1.75,5.35l-5.3,4.43,8.85-.89c-8.14,17.03,9.84,18.71,13.34,26.74,1.83,4.21.22,9.05,2.24,13.79,4.32,10.14,10.46,1.36,11.44,20.99.05,1.07,3.25.62,3.32,1.82.27,4.64.35,9.13.76,14.16.33,4-1.25,12.22-.68,14,1.08,3.34,8.15,1.02,3.41,11.79l-6.22-12.45c-1.3-5.97-1.28-12.86-4.38-18.33-1.15-2.03-6.87-2.73-5.43-8.39-2.52-.55-2.44,3.46-2.49,5.11-.1,3.5.1,14.33.72,16.87.35,1.44,3.68.97,3.64,2.07-.1,2.48-2.92,4.02-3.51,7.21-1.73,9.31,3.6,9.94,3.46,10.55-.31,1.33-3.27,4.1-3.59,5.42-.14.59,6.08.64,1.8,9.75l7.1-5.32c-1.12,12.05-5.55,21.78-13.24,6.96-2.34-4.52,1.63-8.46-6.33-6.95-.13,2.85,6.92,9.56,7.06,10.17,1.34,5.95-2.38,12.61-1.86,15.37.32,1.7,3.64,1.59,4.5,2.85.78,1.13-.65,3.65.12,5.38,2.33,5.24,18.19,3.47,20.16-2.98l-.87-27.87c3.4-10.06,2.05-22.02,3.58-32,.28-1.86,2.92-3.13,3.01-5.65.04-1.26-3.81-.83-3.63-1.71,6.53-32.2,4.21-57.92,18.27-90.46,1.33-3.08,12.8-25.2,14.05-25.99,5.82-3.65,13.12,3.96,13.98,9.66.75,5-2.02,10.36-1.91,15.85.12,6.32,2.02,11.82,2,17.75-.04,15.3-1.33,30.27-1.85,45.5,5.67-5.42,3.52-11.03,14.23-8.91l-3.55,48.09c4.74.98,3.06-1.2,4.42-3.51,9.7-16.48,13.47-29.1,27.58-43.73,6.6-6.84,20.97-22.49,30.44-15.78l-26.81,96.86c9.93-12.03,17.42-26.07,25.9-39.13,1.5-2.3,4.64-2.82,5.59-4.16,2.64-3.71,4.26-13.53,7.18-18.56,3.78-6.54,17.91-14.76,25.44-11.15,1.58,4.73-5.94,11.98-5.3,15.01.33,1.59,4.24,3.78,5.28,2.79.23-.22.02-3.93,1.72-6.27,9.18-12.61,31.24-33.48,43.76-43.55,7.72-6.21,16.64-12.53,26.79-5.52,4.24,2.93.33,8.79-2.12,12.39-22.61,33.15-37.86,74.52-60.49,108.69-5.45,8.23-15.1,15.38-18.53,25.08,1.97,2.01,36.73-35.08,40.92-38.31,7.38-5.68,15.57-11.82,22.7-16.96,5.46-3.93,21.57-8.55,27.74-4.93,9.19,5.4-10.16,13.62-13.78,17.57-7.16,7.8-15.76,24.09-23.42,33.56-11.3,13.96-24.89,26.62-35.31,41.28-1.23,1.74-8.91,13.29-8.15,14.09l83.72-40.04c8.6-3.65,33.73-13.59,41.84-13.55,14.33.08,24.32,12.63,7.92,20.73-3.44,1.7-12.65-8.68-19.56-3.7l-64.62,35.12-20.81,13.89c15.91-4.14,31-11.77,46.66-16.54,11.75-3.58,25.49-5.37,37.48-8.82,3.68-1.06,8.17-4.96,11.19-4.88,3.42.09,4.65,4.17,7.42,4.98s8.26-.35,9.29.59c.52.47-.26,3.47.62,4.5,2.15,2.52,7.76,2.53,6.78,8.48-.43,2.63-19.92,14.05-25.05,9.9,4.89-6.19-4.32-8.12-9.79-10.55l-47.62,14.6c-7.15,5.37-56.41,28.27-56.54,34.26-.04,1.81,4.32,2.69,6.19,2.83,7.03.52,20.29-1.95,28.42-2.03,16.32-.18,35.06,2.46,49.97,2.05,10.54-.3,19.74-4.68,33.89-3.81,5.88.36,24.86,1.41,22.21,8.98l7.1-3.56c-4.92,14.03,7.53,12.93,8.78,17.19,1.06,3.62-6.51,11.9-1.65,18.41-4.36-3.34-8.87,1.43-10.76,1.04-4.57-.93-4.94-6.03-5.35-6.31-1.53-1.1-5.24,1.7-5.22,2.6.05,2.39,6.43,8.21,7.67,9.81,1.53,1.98-1.89,7.02,6.54,3.57-6.09,8.58-3.1,21.01,6.24,8.93,7.31,6.88-1.62,5.34-6.65,7.55-2.59,1.14-4.73,4.48-6.05,4.73-2.04.39-3.76-2.76-5.47-3.1-1.85-.36-3.37,2.37-5.97,2.36-13.28-.05-11.15-5.01-18.62-9.8-11.48-7.36-37.39-11.27-51.67-12.45-7.89-.65-16.1.39-24.01-.01l74.79,36.63c2.86,2.32,9.28-1.71,10.45-.88,1.47,1.05,6.49,11.32,8.06,13.44,1.29,1.74,8,6.36,8.2,7.29.51,2.44-.82,13.13-1.98,14.49-.2.24-2.52-1.09-3.32-.5-4.84,3.53-3.02,8.2-14.88,3.96-2.58-.92-2.61-4.26-4.19-5.08-3.48-1.81-7.45-1.91-11.14-4.45-7.46-5.13-3.81-10.08-7.03-14.33-.67-.88-16.75-10.15-19.06-11.21-5.25-2.41-32.01-12.96-36.22-13.71-2.47-.44-6.83,1.42-7.21,1.05-.89-.88,2.57-6.66,1.78-8.89-7.35,2.29-27.02-9.88-32.14-6.36-4,2.75-4.51,24.16-10.2,28.65.06,2.6,20.52,19.31,24.09,20.14,4.09.95,7.15-1.89,9.98-1.56.48.06,6.77,3.5,7.81,4.1,2.89,1.66,2.44,8.35,11.12,1.33.1,5.44.6,13.79,4.3,17.98,3.9,4.41,9.91,2.98,13.5,6.08,3.22,2.78,2.43,7.05,4.12,9.25s6.9,3.04,9.44,4.87c3.73,2.69,4.02,6.65,6.14,8.86,1.38,1.44,11.76,9.51,12.08,10.24,1.34,3.09-3.27,6.73-3.17,7.75.12,1.19,5.15,2.89,6.71,5.64,1.97,3.46,1.05,9.23,3.88,12.17,1.48,1.54,11.47,6.08,12.57,7.37,5.04,5.88.97,16.13,1.66,16.63,1.26.91,6.56-2.04,5.35,2.66-4.86.7-9.05,11.41-10.07,11.67-2.52.63-21.11-1.15-24.24-1.93-1.2-.3-1.26-2.29-2.06-2.79-1.39-.87-3.79-.44-4.25-.97-1.08-1.21.34-4.61-.69-6.45-.75-1.33-16.08-23.02-17.47-24.36-10.25-9.94-24.61-19.33-35.58-30.38-1.69-1.7-8.12-14.23-10.69-11.56-.48.5-3.45,11.65-3.63,13.31-2.98,26.5,5.23,41.29,19.76,61.86,1.52,2.15,6.99,5.34,7.62,7.25,1.98,5.99.92,19.04,1.91,22.74.86,3.21,4.72,4.83,5.54,7.93,1.45,5.46,1.48,18.95-4.02,22.39-9.87,6.18-32.72-24.17-37.59-31.59-18.71-28.53-37.07-54.67-59.12-81.15l-14.18-13.83c3.73,10.14,9.41,21.32,14.52,30.87,11.53,21.55,24.99,48.83,37.21,69.19,1.66,2.76,6.21,4.14,7.84,8.69,1.83,5.13-1.48,17.69,2.76,23.89-5.04,6.69-5.5-4.91-8.97-7.09-4.43-2.79-13.55-6.28-18.97-9.46-5.73-3.35-11.36-6.92-16.56-11.02-1.53,14.35,3.6,29.3.02,43.27-.42,1.62-4.79,3.11-6.05,2.81-7.66-1.79-8.49-41.63-10.21-50.33-4.72-23.85-19.81-51.03-29.15-74.14-1.59-3.94-7.17-23.94-8.14-24.8-1.64-1.45-14.36.43-14.07,7.65.33,8.43,4.7,21.16,5.32,30.64.48,7.32-1.71,19.44-1.28,26.44,1.72,28.2,12.23,58.4,13.68,87.46.75,14.99-7.78,39.97-4.44,50.76.74,2.38,9.67,14.79.03,15.53-.7.05-12.73-4.59-13.11-5.18-.83-1.3.31-4.31-.76-6.3-6.63-12.34-9.03-29.82-10.67-45.44l-4.85-13.83c-.1,18.45-2.38,37.11-4.63,55.41-1.24,10.08-6.3,19-2.52,30.06-19.22,1.15-9.61-22.37-9.11-34.92.53-13.32.73-27.08,1.28-40.58,1.58-39.32,4.43-78.97.66-117.71-.44-4.52-1.95-26.25-3.75-27.36-10.55-6.53-22.04,13.75-25.52,21.18-14.23,30.38-23.24,74.9-29.1,108.2-.77,4.37,2.74,10.62-3.03,12.83-1.31.5-.83-4.13-3.75-5.1-2.6-.87-9.08.28-9.61-.22-4.6-4.41,13.84-72.55,14.24-83.71l-44.53,73.01c-4.36,2.09-3.32-3.83-4.39-3.57-3.25.78-6.13,7.25-8.17-.91l51.76-91.67c-.81-.74-17.62,8.56-19.48,9.89-6.91,4.95-13.02,15.97-17.94,19.46-3.61,2.56-8.12,1.84-11.5,4.52-8.13,6.45-20.1,30.93-24.88,41.07-2.11,4.46.93,10.54-8.12,6.08-16.19-7.99,13.74-38.33,18.55-45.57,5.72-8.62,25.72-36.18,28.63-42.64,1.31-2.91.24-6.52,1.32-8.46.66-1.19,8.25-3.73,8.49-7.5-9.43-1.29-11.56,6.38-15.91,9.84-18.74,14.91-36.24,31.38-52.68,48.89-2.7,2.87-32.87,40.05-34.69,37.43-.01-5.69-1.8-20.62.82-24.98,1.34-2.23,5.71-2.25,7.54-4.05,14.49-14.29,30.28-42.75,42.48-59.9,4.68-6.57,36.07-42.84,32.07-48.25-10.65-3.69-24.46,1.81-35.95,3.4-8.19,1.14-18.09.76-26.39,2.1s-13.68,8.91-20.57-4.57c8.05-1.47,2.53-8.84,3.55-9.77.53-.48,11.46.25,14.26-1.81-4.34-8,4.33-7.61,10.66-7.99-10.59-5.94-23.03-8.13-34.95-9.58-5.1-.62-14.88-2.18-19.28-2.07-7.46.18-15.23,5.08-24.11,1.83-.62-8.92.49-16.14,8.86-20.46-4.83-7.46-13.23-3.25-20.35-4.55-10.48-1.92-23.09-7.38-33.3-9.45-25.46-5.14-50.71-1.21-76.34-4.71.26-1.54-.46-4.35.1-5.22,3.76-5.86,83.01-7.91,94.29-7.25,1.04-9.24-38.32-17.19-16.5-22.73,16.36-4.15,23.93,1.46,34.96,1.26,4.23-.08,47.42-8.83,49.22-10.6,5.57-5.5-10.24-2.07-11.13-2.17-25.94-3-45.49-6.94-70.31-13.5-2.42-.64-4.8,1.47-6.52,1.41-1-.04-1.03-2.3-1.84-2.79-1.37-.83-3.67-.58-4.12-1.1-.31-.36-2.35-8.76-2.31-9.32.08-1.13,3.64-.89,3.69-2,.1-2-3.21-5.28-1.1-8,2.14-2.96,27.73-1.34,31.82.46,2.97,1.31,3.01,4.48,4.92,5.76,4.25,2.86,16.31,5.66,21.26,2.75l-57.94-39.09-.8-5.41,5.31,1.77-3.55-7.08c7.41-.83,3.44-3.58,3.82-6.39,1.32-9.77,12.25.12,16.76.91,4.95.86,10.47-.47,15.7.33,12.69,1.93,23.97,9.21,36.74,8.66-5.85-11.82-18.85-17.51-27.65-26.65-18.64-19.36-19.42-33.45-45.61-48.86-1.87-1.1-4.93-.89-5.12-1.07-.37-.36,2.16-4.1,1.98-6.07-.14-1.51-3.58-.89-3.71-1.05-3.87-4.83,6.35-3.13,7.12-3.56.84-.47-1.31-14.16,9.75-14.25.35,5.09,19.91,30.81,22.29,18.68.43-2.2-12.07-20.68-10.7-25.76l10.68,1.76c-5.59-9.54,6.3-.82,9.58-9.4.25-.64,1.61-13.23,1.13-13.72s-10-.66-10.4-8.33c-.12-2.31,2.64-3.89,2.87-5.49.39-2.71-2.77-8.03,1.29-9.35.63-.2,8.18,8.6,6.21,10.67l-3.53-3.54c-.78,9.36,7.29,16.45,10.67,23.14v-7.11c4.29-4.87,4.28,11.98,0,7.11ZM316.08,71.54c-2.67-.5-4.04.58-4.97,3.02-2,5.27-1.5,29.46-.39,35.28,1.04,5.45,12.13,6.72,7.15,15.1,4.75-1.06,4.58-3.37,6.22,1.79,5.31-5.28,5.12-11.96,6.73-18.2.53-2.08,3-3.47,3.14-5.78.06-1.04-5.16-1.75-6.51-6.24-1.18-3.93,1.97-6.92-.84-11.36-3.67-5.81-13.3-4.21-10.54-13.61ZM300.06,96.48c-5.68-1.5-4.75,6.46-5.4,7.07-1.38,1.31-8.05-3.66-9.81.04-.41,12.05-2.39,24.35-.69,36.41.44,3.12,5.59,15.83,5.36,17.76-.2,1.75-5.52,1.72-5.49,4.58,2.31-.02,6.02.52,7.11,2.72,1.68,3.42-7.52,2.71-3.54,6.2.46.41,6.69-2.06,6.95,6.34.01.47-8.71,4.24-5.15,7.91.54.56,6.61-4.16,7.08-3.58.24.29-.31,3.41,1.03,5.25,1.03,1.4,4,1.45,4.29,3.02.09.45-1.02,8.7-1.19,9.13-1.07,2.7-4.67,1.98-4.1,3.09.51.99,2.91,1.97,3.01,3.55.15,2.38-4.09,4.25-1.56,10.89,1.04,2.74,4.01,2.61,3.97,3.43-.19,4.19-8.58,11.53-7.34,17.57l9.02,2.88c.44,3.98-6.54-.8-5.28,4.37.18.73,6.64,12.84,7.26,13.27.43.31,7.81-3.01,10.5-1.62l-1.77,7.1c6.52-2.3,13.08,3.71,18.24,3.26,1.14-.1,18.83-4.92,19.74-5.38,4.15-2.06.79-6.97,9.18-3.17,3.97-3.57-1.65-3.22-2.6-4.88-1.2-2.09-.37-5.17-2.37-7.21-.81-.82-11.37-3.69-8.34-7.51.7-.88,5.8-.04,7.14-6.25.92-4.27-1.87-1.9-3.57-.9l-1.82-8.9-4.47,5.35c-2.75-3.05-16-4.48-16.67-5.59-.91-1.51.27-5.1-.27-7.37-.31-1.28-3.67-1.14-4.55-7.87-2.02-15.48,2.84-25.44-3.01-45.48-1.07-3.65-4.24-7.28-4.83-9.42-.24-.86,7.21-2.97,7.11-6.2l-8.89,3.54c3.06-12.98-4.58-10.38-6.77-12.81-1-1.11-3.26-16.37-4.39-19.66-2.24-6.53-12-11.86-3.1-20.93ZM259.09,100.02c-7.25-1.39-.98,9.61-.6,13.65.44,4.72-4.77,6.7,4.19,5.96-5.15,7.54,2.07,10.89,3.25,16.86,1,5.06-3.16,9.81-3.35,12.44-.03.48,6.2,3.01,6.47,7.21.2,3.12-3.63,7.6-2.95,12.46.63,4.51,4.4,3.6,5.28,4.72,1.22,1.55-3.59,6.82-.71,8.63,9.2-7.76,3.89-18.32,1.78-27.65-2.35-10.39-4.49-25.14-8.08-37.27-1.66-5.62-7.28-9.59-5.28-17ZM415.82,142.76c-.41-11.26,2.75-21.49,1.8-32.95-.17-2.08-.54-7.98-3.55-7.99-.83,10.46,0,20.79.08,31.25.03,4.2-4.67,11.14,1.68,9.69ZM338.07,147.62c-1.21-3.66.44-8.7-4.15-10.2-.59,5.36.84,11.71-.06,16.88-.46,2.64-3.91,5.62-3.51,6.24.11.16,2.52-.41,3.64,1.25,1.82,2.71-.01,6.55.89,7.78s4.32,1.19,4.45,2.73-2.22,4.37-2.01,6.81c.06.62,6.12,1.64,3.68,6.4-.12.24-3.93-2.51-5.33.93.81,2.14,3.1,12.83,3.58,13.33,3.47,3.52,3.66-7.14,7.1-3.56,2.97,3.1-10.09,7.59-7.11,10.67s6.5-2.09,6.22-5.35l6.22,5.35c-.63-3.31,2.49-10.41,1.85-12.96-.45-1.79-3.62-1.84-4.32-3.17-6.75-12.86-7.5-32.02-11.16-43.11ZM355.27,158.79c1.74.62,3.67.78,5.33,1.78,3.15-8.38-7.28-10.71-8.5-12.83-.78-1.36.64-15.42-3.92-10.32-.73.82-6.02,20.5-5.35,21.37l11.53-5.37c2.03-.02.32,4.02.92,5.37-1.36-.48-2.22-1.75-3.54-1.78-1.59,2.2,4.18,8.29,7.11,7.11.6-.47-2.93-3.91-3.56-5.33ZM492.91,281.19c.23.35,6.26,4.81,6.64,4.97,4.67,2,5.19-10.96,6.18-13.41,12.37-30.66,45.52-70.03,62.91-100.94,5.99-10.64,12.16-22.91,16.36-34.38-5.3,1.94-7.97,8.86-11.19,11.96-37.91,36.52-44.72,58.08-69.98,101.87-4.51,7.83-18.74,17.94-10.92,29.94ZM414.03,160.57c-1.33-5.36,5.08-13.19-1.75-16.02l1.75,16.02ZM454.99,244.28l28.5-99.73c-24.39,21.94-28.7,55.55-40.21,84.64-.76,5.63,6.67,4.96,7.83,6.55,1.38,1.91-.67,7.7,3.89,8.55ZM406.9,238.94c5.06-5.34,5.11-64.84,7.12-76.57-3.05,1.04-4.54,9.32-4.86,12.03-1.37,11.25.21,22.18-4.01,33.39,1.75,9.38-2.98,19.68-1.81,28.5.32,2.43,1.05,5.31,3.56,2.66ZM202.13,171.27c-.3-.34-7.18-1.12-8.91-1.78.92,8.83,4.76,15.59,8.02,23.19,4.56,10.6,11.2,23.11,14.97,33.35,1.24,3.37,4.4,10.07,4.92,12.36.91,4.01-5.15,5.68,7.68,2.34.47.46-2.61,6.39-.16,9.61s7.74-2.63,4.12,7.09c3.21,1.39,4.48,11.36,7.6,9.99,8.19-3.58,1.77-20.06-.74-25.94-3.74-8.78-14.12-17.99-16.28-22.82-1.73-3.87-1.19-10.47-4.54-11.46-1.95-.58-5.84,4.83-6.12-6.58-.06-2.3,2.14-5.98,1.89-6.19-.45-.38-3.63.96-5.51-1.12-1.18-1.3-2.7-7.54-3.85-10.03s-4.2-4.29-4.66-6.16c-.55-2.25,1.76-5.62,1.56-5.85ZM531.95,168.6l-6.03,9.57,2.61,1.64,6.03-9.57-2.61-1.64ZM287.58,181.93c.83-3.79,3.06-5.53-1.74-7.11v7.11s1.74,0,1.74,0ZM248.42,206.86c-1.58-4.81-3.32-2.58-7.11-1.74v1.74s7.11,0,7.11,0ZM235.94,212.23l-8.89,1.79,3.59,7.09c5.45.48,5.75-4.49,5.3-8.89ZM339.24,215.79c-2.72-2.75-5.69,5.03-5.33,5.32,2.2,1.78,7.02-3.62,5.33-5.32ZM574.99,239.57c.79-1.05,9.12-5.1,2.92-7.75-10.9,15.84-25.28,28.7-38.32,42.72-12.96,12.07-33.12,16.29-20.44,37.4,4.08,1.03,2.91-.8,4.05-2.24,5.71-7.28,9.73-18.89,15.51-27.14,10.3-14.7,24.96-28.09,36.29-42.99ZM173.62,238.92c4.39.57,6.97-3.39,2.66-5.32-.9-.4-1.6,4.15-2.66,5.32ZM146.81,235.47c-.36-.34-10.41-1.75-8.79,2.54,1.22,3.26,8.06,8.7,10.65,11.61-.25-2.29-1.34-13.66-1.85-14.15ZM157.57,242.5l-5.15,4.19c8.22,8.94,9.49,24.74,22.98,26.07,1.34-1.16-19.67-24.91-17.83-30.26ZM292.93,246.06c-11.59-1.6-6.74,17.12,4.12,14.31,5.92-1.53.66-13.26-4.11-8.94l-.02-5.37ZM552.96,317.32c-3.18-.19-7.6,1.99-8.9,5.31,3.18.19,7.6-1.99,8.9-5.31ZM213.16,347.17c-.86-.51-.92-3.9-3.23-4.68-3.86-1.31-9.39,1.11-13.15-1.16-2.52-1.52-6.62-11.22-8.83-12.41-1.18-.64-3.77.69-5.86.28-7.63-1.5-16.68-4.84-24.07-6.1-4.29-.73-8.58-.53-12.89-.45-.23,8.16,8.76,4.05,13.15,5.57,3.29,1.14,1.5,7.25,6.42,3.32l.03,7.14c4.7,1.95,3.04-3.69,4.45-3.62,3.09.16,6.76,5.37,11.56,3.64,1.06,2.25-7.57,2.02-3.54,5.32,1.22,1,6.81-2.18,9.45-1.54,3.86.94,4.21,6.22,5.02,6.76,1.15.78,4.78-2.1,7.44-1.43.98.25,12.17,5.59,13.39,6.69l27.02,10.89-5.35-3.57c6.66-12.97-8.24-6.41-8.87-7.08-.32-.35.39-4.92-1.65-6.39-2.66-1.92-7.94.34-10.48-1.17ZM139.77,335.12h-3.54s0,5.33,0,5.33c2.58-.6,4.08-2.88,3.54-5.33ZM264.43,376.07c2.22-4.98-7.73-10.27-8.87-8.9-2.34,2.8,6.73,8.53,8.87,8.9ZM675.86,377.87c-2.91-3.08-47.11-7.9-54.38-7.3l-38.27,8.17c.01.44,7.2,3.48,8.04,3.54,16.11,1.19,33.51,1.13,49.83,2.68,9.72.93,27.27,6.29,35.63,5.41,7.23-.76-.83-5.01-1.83-7.26s1.17-5.06.99-5.25ZM574.32,377.87c-3.79-.83-5.53-3.06-7.11,1.74h7.11s0-1.74,0-1.74ZM243.08,399.24c-.61-.72-17.31-5.24-18.25-5.11-2.4.33-6.7,3.31-10.22,4.22-8.08,2.09-17.54,3.14-24.98,5.33-20.46,6.02,6.35,8.9,7.17,9.81.18.2-2.29,3.15-.99,5.31.23.38,5.84,6.01,6.22,6.23,1.88,1.04,7.78-2.04,8.97-.85.58.58-2.52,9.16,11.4,5.43,1.55-.42,3.52-11.59,5.64-14.26,1.72-2.16,19.76-10.54,15.04-16.11ZM262.66,415.25c.1,8.83,1.83,9.2,10.67,10.68l-3.57-21.36c-4.67,2.13-3.89,6.72-7.11,10.69-.1-8.24,4.66-15.35-7.09-17.8-2.09,7.92-13.2,12.5-10.42,21.86,2.99,10.05,13.57.8,17.51-4.06ZM279.18,450.35c-1.11-.71-1.2-3.78-3.38-4.55-3.96-1.4-10.49.31-14.93-.27-.84,8.14,1,4.68,7.12,3.56l-1.76,7.11,5.31-1.77c-5.85,17.28,10.89,15.91,23.16,14.23.77-1.06-5.45-13.74-7-15.24-3.21-3.11-6.35-1.68-8.53-3.07ZM545.5,465.42c-.27-.46-8.77-5.06-9.46-5.07-3.09-.05-5.65,4.22-8.16,5.58-2.13,1.15-6.05.52-6.75,1.2-.59.58-.26,4.6-1.22,6.71-1.02,2.22-3.75,4.27-4.01,6.67-.61,5.75,19.97,37.72,23.7,45.14,3.35-9.62-3.4-21.78-2.85-31.18.27-4.52,4.41-6.9,3.72-11.54-.39-.37-14.37,1.06-8.9-3.55.38-.32,4.08.38,6.26-1.75,1.77-1.73,1.66-5.78,3.12-6.83,1.55-1.12,8.24.96,4.54-5.38ZM506.63,491.84c-13.61,2.3,5.26,17.11,8.91,21.37l-8.91-21.37ZM333.9,509.63c6.03-6.23-19.97-5.78-22.38-5.49-3.14.38-2.53,3.02-2.92,3.15-1.36.45-2.84-1.52-5.88.36-1.81,1.12-20.74,23.7-23.06,26.99-4.34,6.16-7.73,16.74-13.43,23.07,2.39,2.22,20.31-17.99,23.13-20.49,12.34-10.96,27.92-26.13,44.54-27.59ZM355.1,517.03c-.71-.51-1.63-.43-2.47-.25-2.21.74-8.31,10.99-8.16,13.22.03.5,7.6,5.8,8.1,5.82.47.03,8.63-2.59,9-2.87,4.03-3,4.84-9.76,4.37-14.41-3.39-1.38-7.91,1.62-9.93,1.62-.98,0-.54-2.87-.92-3.14ZM465.32,518.94c-1.27-.69-6.43-.68-6.74-.39-3.58,3.36,11.12,23.92,13.78,28.01,1.63,2.5,4.11,3.81,5.79,2.25,1.19-1.11-11.4-29.1-12.83-29.87ZM405.14,522.12c2.95,9.54.22,20.78.89,30.17.86,12,7.62.91,8.04-8,.25-5.24-1.28-8.27-1.64-12.59-.5-5.92,5.48-10.33-7.3-9.58ZM369.51,539.92c-4.13-.49-6.74,3.88-8.04,7.08-5.43,13.34-12.64,35.81-16.1,49.79-1.84,7.45-2.5,17.24-4.32,25.04,2.67-.71,5.15-6.89,5.88-9.23,3.47-11.12,5.21-23.85,8.87-35.65,3.9-12.54,8.77-24.89,13.71-37.02ZM663.37,563.08c-2.72-2.75-5.69,5.03-5.33,5.32,2.2,1.78,7.02-3.62,5.33-5.32ZM421.16,586.23c-8.2-.46-2.92,9.35-2.76,11.57.78,11.06-.13,22.76,1.01,33.81,1.41,13.58,3.7,27.34,5.31,41.02.31,2.65,1.41,5.45,3.56,2.63l-7.12-89.03Z"/><path class="cls-1" d="M230.6,121.4c-2.24,6.09,2.46,12.69,2.75,16.85.53,7.55-6.49,13.76,2.56,21.44l-7.07,4.44c.98-6.96-2.63-13.69-1.98-20.57.33-3.51,3.91-1.79,3.88-5.13-.04-4.68-7.76-18.18-.15-17.04Z"/><path class="cls-1" d="M244.85,644.99c-3.43.17-3.6.83-3.63-2.71-.04-5.28,4.17-15.05,6.82-19.92,1.41-2.58,4.97-7.79,7.48-9.41-2,11.29-12.63,19.97-10.68,32.05Z"/><path class="cls-1" d="M371.29,231.82c3.22,3.63-3.12,8.99-7.11,2.65.73-1.34,6.53-3.3,7.11-2.65Z"/><path class="cls-1" d="M307.21,194.41l-.9,5.33c-8.17-9.35,1.8-6.33,2.67-7.12,1.06-.97-3.7-7.28-.91-8.89l6.19,11.59-7.06-.91Z"/><path class="cls-1" d="M321.43,206.9l-5.32,10.66c.55-6.04-3.04-12.51,5.32-10.66Z"/><rect class="cls-1" x="269.81" y="201.55" width="1.74" height="10.67"/><path class="cls-1" d="M308.96,171.27c.97.98-2.56,9.26-3.54,7.1v-7.11s3.54,0,3.54,0Z"/><path class="cls-1" d="M328.56,260.29c-3.37.59-5.93-2.08-5.32-5.32l5.32,5.32Z"/><path class="cls-1" d="M428.28,319.07h-5.33c1.21-9.44,4.11-9.44,5.33,0Z"/></svg>