<?xml version="1.0" encoding="UTF-8"?><svg id="Layer_1" xmlns="http://www.w3.org/2000/svg" viewBox="0 0 800 800"><defs><style>.cls-1{fill:#fff;}</style></defs><path class="cls-1" d="M544.82,208.66c2.39,3.32,7.63,6.68,8.42,12.45.79,5.77-3.79,9.17-5.13,12.79-1.67,4.52,4.52,1.43,6.15,1.47,31.38.71,57.87,26.53,77.12,49.01,14.68-11.19,29.95-18.65,48-22.58,17.52-3.82,42.38-6.84,58.18,3.16,21.98,13.92,38.78,56.04,40.47,81.01.87,12.84-4.77,25.51-5,38.68-1,2.7-4.16,3.03-6.69,3.46,4.54,9.24,1.77,4.09.11,7.32-2.74,5.35-4.93,14.05-7.95,19.1-8.11,13.57-29.87,29.06-39.48,40.38-7.2,8.48-3.94,3.53-11.19,8.08-2.15,1.35-3.83,6.22-7.93,7.66s-6.76-3.01-6.07,2.25c-3.2-.89-2.82-7.15-7.68-6.15-.83,2.71,1.2,6.46.9,8.55-.42,2.98-22.2,16.17-25.57,17.05-3.61.95-6.05-1.56-9.19-.22-4.73,2.03-9.49,8.75-12.43,10.8-7.83,5.44-16.77,5.36-22.35,13.15-2.79-7.99-4.2.04-4.63.08-3.36.34-5.52-2.94-6.17-2.93-.72.01-5.27,7.31-11.2,8.59-8.01,1.72-10.19-2.94-13.46,6.58-2.94-7.46-12.1,4.25-13.7,7.7-6.87,14.81-8.56,15.28-18.59,27.89-1.56,1.96-7.75,12.91-8.81,13.5-.59.33-3.06-1.67-4.45-.65-1.72,1.27-1.2,5.62-2.94,7.96-.55.74-12.7,11.09-13.5,11.55-3.14,1.81-9.38,1.13-9.73,1.47-.57.55,1.76,5.45.45,8.78-2.67,6.75-11.56,8.8-12.53,9.96-.88,1.06.49,5.24-1.67,8.37-2.4,3.5-9.05,3.37-9.38,3.74-1.17,1.3,6.42,8.67-1.46,11.48-1.91.68-4.72-1.13-6.92-.75-17.27,3.02-21.6,2.31-38.58,1.53-8.14-.37-14.68,2-22.43-1.48l4.61,4.64c-2.22,4.8-10.41-.69-13.04-.84-4.59-.26-11.1,1.89-16.24.8l13.86-1.53c.73-4.38-.92-2.57-3.58-3.29-7.36-1.99-12.11.77-19.55.23-.19,1.34,2.83,4.21.75,4.62-3.66.72-1.5-2.76-3.29-3.15-3.19-.68-6.54,1.11-9.1.89s-4.6-2.74-6.69-3.11c-3.37-.59-6.11,1.87-10.93-.09-21.12-8.57-41.93-34.1-59.42-48.54-17.26-14.25-30.12-20.79-45.97-38.08-2.25-2.45-7.6-4.46-9.49-8.28-1.54-3.12,1.23-10.79-3.16-13.76-6.39-.02,3.69,6.68.03,9.23-4.72-10.9-9.14-8.29-17.06-12.25-36.47-18.23-74.18-35.96-109.14-57.4-36.98-22.68-87.74-57.42-88.54-105.7-.03-1.82,1.88-3.21,1.89-4.25.37-59.96,44.49-79.74,98.74-79.59,6.38.02,13.83.22,11.56,7.83.61.73,6.76-4.46,8.48,3.08l1.52-9.24,3.87,2.32-3.09,2.31c3.93,7.43,4.36-2.42,10.79-.03l.02,6.18c3.21-.26,6.36-2.34,9.72-1.56,1.08.25.84,2.55,2.21,3,3.83,1.28,15.33.78,11.19,6.25.74-.02,1.56.19,2.29,0,7.97-2.14,18.51-16.93,24.65-21.62,3.19-2.44,11.77-7.53,15.99-10.23,6.07-3.88,16.36-6.07,23.39-8.25-12.41-10.35-31.29-27.11-27.71-45.44,1.67-8.53,12.58-4.61,19.2-5.46,51.53-6.62,102.3-10.7,153.53-14.57,17.56-1.33,23.07-.19,39.25.43,16.93.64,38.16-8.46,55.51-9.09,9.29-.34,34.06,2.53,42.4,5.57,9.95,3.63,12.27,9.81,17.56,17.15ZM530.28,207.81c-.37-.5-10.18-4.46-11.55-4.68-8.06-1.32-15.1,1.85-21.48,1.57-9.86-.44-8.33-1.44-20.22-.28-63.24,6.21-127.56,10.38-189.7,14.18-7.31.45-40.38,2.08-44.33,4.42-1.94,1.15.63,6.36-5.63,4.69l3.11,9.24c3.81,1.34,2.45-2.4,4.16-3.01,1.55-.56,5.69-.78,7.73-.92,17.64-1.2,36,1.38,53.62.55,3.51-.17,20.08-3.54,20.81-2.79.3.31,1.5,7.99,1.41,8.4-.51,2.37-4.89,1.34-4.47,3.93,2.24.23,6.69.15,8.35,1.37,2,1.48-.56,5.23,2.42,4.8-.71-8.95.73-4.57,3.1-5.6,7.79-3.4-1.93-4.74-2.73-5.63-.69-.77.02-3.04-.67-3.86-1.17-1.37-5.57,1.56-4.3-3.4h15.41s-1.53,4.61-1.53,4.61c3.39-4.37,26.41-5.85,29.33-3.88,1.44.97.96,3.94,2.27,3.9,1.02-9.65,13.72-5.28,20.82-6.17-1.43,3.24-7.23,2.73-3.86,7.69,4.06-6.84,8.26-8.62,16.2-9.23-5.6,2.9.96,9.95,3.81,9.24,1.5-.37,3.5-5.8,5.44-6.95l-4.61-2.29c6.95-2.48,14.33-1.4,21.58-1.55l-.75,4.63,15.53-4.52c18.18.89,47.62-10.21,64.43-7.72.44.07,6.97,5.03,7.1,5.46.64,2.11-2.81,5.26-.72,6.76,3.16-3.08,12.13-19.97,9.92-22.97ZM226.57,230.79l-2.29-9.24c-4.53,1.47,1.32,10.45,2.29,9.24ZM433.23,235.4c-.77-2.46-11.1-8.85-12.33-7.69.31,5.91,7.38,8.2,12.33,7.69ZM519.59,232.35c-6.78-.06-11.03-1.74-17.83-.07-2.63.65-4.51-1.49-3.75,3.13,7.35-2.33,13.36-4.49,13.09,4.62l8.49-7.69ZM383.88,232.34h-4.61c-1,3.76,1.64,3.02,4.6,4.62v-4.62ZM536.55,238.49l-.76-4.61c-1.63,1.4-2.81,2.34-2.31,4.61h3.07ZM288.26,236.97c-2.36-2.38-4.93,4.35-4.62,4.6,1.9,1.54,6.08-3.13,4.62-4.6ZM302.92,236.94l-3.1,3.1,3.1,3.1,3.1-3.1-3.1-3.1ZM317.55,246.2c1.02-3.66,3.23-7.6-1.5-9.24-.87.72-2.12,9.38,1.5,9.24ZM351.47,236.96c-3.97-3.18-3.89,4.92,1.55,6.16.12-1.14-1.3-5.96-1.55-6.16ZM446.67,240.59c-14.61-4.87-9.62,1.9-11.93,4.07-1.1,1.03-5.38-1.69-6.79-1.59-.94.06-.79,2.55-1.24,2.81-2.2,1.25-7.64-3.51-7.35,3.42l32.84-3.38,4.17-4.3c-2.81-.93-6.32,1.66-8.36,1.54-.87-.05-.86-2.39-1.34-2.56ZM257.58,250.66c2.09.84,4.95-1.27,3.72-2.91-2.39-3.21-9.13-5.44-13.13-4.61l2.31,4.61c2.48-8.87,5.93,2.44,7.09,2.91ZM413.77,245.6c-.94-.92-.18-2.92-1.35-2.47l-2.31,3.83c1.64,2.39,3.31,2.7,6.15,2.33,1.02-3.96-1.36-2.58-2.49-3.69ZM272.85,247.74c.75-.63-2.71-4.06-4.62-3.06v4.62s4.62-1.56,4.62-1.56ZM362.29,244.68c-8.86-2.33-2.36,7.55-1.56,6.14l1.56-6.14ZM370,246.23h-4.62s0,3.06,0,3.06c2.13.47,4.1-.83,4.62-3.06ZM624.47,314.06c-8.45-35.54-31-61.01-68.81-64.62-8.81-.84-14.07,1.42-5.22,7.55-4.56-2-8.73.54-12.98,0-1.93-.24-3.67-2.3-5.08-2.46-3.01-.34-15.42-2.02-16.47-1.81-3.41.65-3.75,5.62-4.05,5.82-3.14,2.07-4.15-4.56-5.51-4.68-2.7-.24-10.59,3.82-14.11,4.38-2.38.38-4.54-1.37-5.66-1.27-1.34.12-1.24,3.07-2.46,3.82-6.32,3.9-36.93,4.23-46.83,5.68-21.51,3.15-50.09,11.42-71.31,11.97-2.08.05-27.13-2.43-28.87-2.95-1.56-.46-.94-2.93-1.08-3.03-.59-.44-2.95,2.73-5.41,3.03-3.36.4-18.76.56-21.65.15-2.43-.34-3.19-1.13-8.97-1.79-4.98-.57-34.99-7.21-36.41-6.03,6.53,9.67-11.08,12.62-17.55,17.13-2.62,1.83-3.39,5.33-5.47,6.9-15.88,11.96-25.27,16.56-36.88,34.03-4.03,6.07-8.84,11.91-9.49,19.02,21.34,2.66,42.48,1.77,63.98,3.11,6.31.4,13.53,2.66,20.01,3.13,5.4.39,25.82-1.22,28.27.36.74.48-.34,2.37,1.1,2.68,3.48.74,1.79-2.1,2.62-2.68,2.95-2.07,34.62,2.31,42.05,2.28,13.48-.05,27.38-3.56,40.33-4.01,17.16-.61,29.09,1.58,47.77-.07,55.02-4.86,111.35-13.91,164.49-28.28,6.27-1.69,12.34-7.72,19.65-7.35ZM280.56,253.91c-3.35-5.19-11.95-.63-16.95-3.06-.64,4.3.74,2.88,3.82,3.08,4.34.28,8.79-.19,13.13-.02ZM337.61,264.72c-.44-.36-10.67.93-10.78,3.06,3.26-.85,12.06,2.66,10.78-3.06ZM376.17,266.27c-11.37,1.22-26.48-6.5-35.47,3.05,9.98-2.49,20.31.48,30.51-.36,2.26-.19,4.25.47,4.96-2.69ZM709.28,272.44h-4.62s0,3.06,0,3.06c2.13.47,4.1-.83,4.62-3.06ZM129.42,283.25c-.2-.25-5.02-1.67-6.16-1.55,1.24,5.45,9.35,5.52,6.16,1.55ZM706.19,295.58l-9.23-1.55v3.07s9.24,0,9.24,0v-1.51ZM698.01,387.62c1.36-1.85,1.46-5.74,3.23-8.34,5.52-8.09,19.79-25.67,18.53-34.73-2.61-18.75-14.17-26.79-32.94-24.42-3.01.38-2.09,2.86-4.14,3.63-8.09,3.05-20.48,8.76-27.37,10.97-1.6.51-4.36-1.01-4.64-.63-2.35,3.14,1.2,13.41,1.08,15.86-.87,17.82-8.45,34.36-8.76,48.26-.22,9.81-8.27,33.06-13.8,40.06-6.91,8.73,4.74,2.57,9.05-.16,11.49-7.28,25.38-20.29,35.55-29.22,6.22-5.47,19.61-15,24.22-21.27ZM629.08,329.51c-3.28-.72-4.79-2.65-6.16,1.51h6.16s0-1.51,0-1.51ZM167.97,332.59c-.35-.35-4.95-1.71-6.16-1.55.75,2.96,3.41,3.47,6.16,3.05-.08-.5.21-1.29,0-1.51ZM619.83,335.67c-2.66-.43-8.53,2.37-6.16,4.6,1.36,1.28,5.74-2.51,6.16-4.6ZM188.02,462.11c-17.73-34.54-32.34-70.41-24.7-110.22-1.7-3.29-4.13-.74-6.47-1.22-12.68-2.62-24.7-8.18-37.38-8.9-14.08-.8-32.12.14-31.77,17.84.92,47.26,55.66,84.01,94.22,101.69,2.06.94,3.91,1.03,6.1.82ZM757.08,343.38c-.24-.23-2.11.08-3.07,0v9.24s1.52,0,1.52,0c-.68-2.04,1.99-8.82,1.55-9.23ZM198.05,415.85h34.7v1.54h-33.93c-.2,3.61-.53,2.73,2.29,3.09,7.5.96,16.8-.46,24.68,0,4.36.26,8.65,2.34,13.24,2.56,7.88.37,21.77-5.46,25.34,3.6,1.61-5.56,10.9-.96,16.19-3.07l-4.63,6.14c7.42-2.04,6.29-1.35,11.58,3.09,1.45-7.46,14.08-9.2,19.81-7.76,1.72.43-.25,3.94,3.3,3.16.5-.11,2.11-5.69,8.48-3.09l-4.61,2.3c1.49,3.19,7.8,2.31,10.79,2.31l-1.54-4.6c20.33,2.84,3.23,5.45,1.62,7.83-.33.49,2.08,3.83,1.45,4.49-7.68-2.74-6.27-7.67-13.86,0l-2.33-6.14c-6.13,2.58,3.9,3.76.76,6.13-1.3.98-28.84-1.69-32.53-2.42-13.18-2.62-17.14-.47-29.88-1.03-14.38-.63-28.94-4.37-43.98-2.71-1.74,2.35,4.64,15.63,6.28,18.83.68,1.33,2.52,1.51,3.39,3.18,2.82,5.44,10.95,25.47,16.07,27.04,13.96,1.03,27.51,4.66,41.35,6.46,20.83,2.72,43.82,5.07,64.83,4.7,4.6-.08,9.08-2.28,13.9-1.77,2.93.31,2.12,3.12,2.9,3.07,31.81-1.97,63.58-6.97,95.5-6.06,2.24,5.79,1.44,1.57,5.28.52,11.28-3.09,27.81-.88,39.65-2s26.3-2.99,38.38-4.8c9.31-1.39,43.02-6.83,48.64-11.5,2.25-1.87,13.32-18.47,15.16-21.85,3.07-5.62,12.25-25.65,13.57-31.19.44-1.87,1.34-2.55-.84-3.96-6.1-3.96-23.61,7.98-31.61,7.02,1.08-9.68-2.14-3.94-4.66,1.51-.25-7.04-4.28-4.3-10.02-4.61l1.54,7.69c-13.3-.73-29.45,7.67-42.43,7.74-3.69.02-2.11-1.39-2.31-4.64l-2.29,3.07-5.39-6.16,1.53,6.15c-3.33-1.35-14.78,3.31-13.1-1.46.88-2.49,4.95-4.16-.02-7.77l-3.08,9.24-3.84-4.63c.91,5.85-1.97,9.94-7.75,6.84v-8.38c-4.07-1.36-2.64,2.16-3.31,2.66-.51.38-10.37.35-12.76.56-5.83.5-6.08-.05-10.44.11s-8.96,3.92-11.27,4.36c-1.04.2-.49-2.2-1.81-3.12-3.73-2.6-7.48,2.63-6.65-3.03,7.98.81,16.65-2.58,24.01-3.12,4.01-.29,11.16,1.88,13.6,1.53,1.09-.16.77-2.68,2.01-3,7.34-1.86,19.41-.39,27.21-.64,8.15-.27,19.42-4.27,25.67.58-.52-5.78,3.88-1.3,6.28-2.34,11.61-5.05,8.46-3.22,22.2-5.44,2.07-.33,14.25-4.99,11.65-7.61l-7.7,1.52c-1.42-1.1,11.74-8.6,11.56-1.53,6.38-11.48,22-7.92,33.16-10.78l-1.54,4.6h9.25s-6.16-4.6-6.16-4.6c10.87,1.57,6.67-2.18,8.98-10.31.79-2.76,2.78-5.06,3.26-7.53,1.47-7.63.36-17.52,3.17-25.35-4.92-.99-1.97,3.64-5.55,6.12-2.46,1.71-5.05-.29-6.39.37-.39.19-.54,2.34-2.33,3.2-8.66,4.15-16.36,6.96-25.82,8.79l3.06-3.05-7.69-1.55,3.08,6.15c-4.37-1.2-8.29,2.87-11.65,3.08-2.18.14-5.93-2.08-6.86-1.51-.18.11,1.23,2.55.78,3.13-1.91,2.48-19.38,3.91-24.24,4.99-10.99,2.43-34.25,9.42-44.89,7.3-.52-.1-7.39-9.35-4.12-.03-5.13.34-11.06,1.53-16.12,1.6-5.88.07-16.18-1.99-21.74-1.77-3.04.12-2.02,3.5-2.98,3.28-3.85-.86-10.1-6.01-10.74-5.98-2.78.11-20.44,6.23-20.88-.97-.22-3.57,5.52-.12,6.13-1.53-1.07-3.17-8.11-1.98-9.24-.76-2.89,3.11,4.45,2.49,3.06,5.35-1.55,3.18-19.66.06-21.31-1-1.82-1.17.07-7.74-5.66-5.92l5.39,7.7c-2.73,1.46-7.23-3.45-7.68-3.07-1.14.98-.17,5.46-7.13,4.6-3.18-.39-1.97-3.33-2.89-3.07-9.98,2.83-18.56,2.98-29.27,3.16-14.08.25-27.93-.44-41.96-1.03-2-.08-11.66,2.55-11.28-1.35.04-.46,5.85-2.84,4.6-6.92-4.93-1.2-2.02,2.75-3.44,4.24-.43.45-8.2,4.11-9.61,4.16-3.69.12-9.96-.42-13.87-.77-4.65-.41-5.38-1.36-12.52-1.47-20.91-.32-42.19,1.5-62.71-3.5-1.75-.43-11.39-7.17-11.96-1.78-.32,2.97,3.06,19.35,4.12,23.49.64,2.52,2.05,10.34,4.35,11.07ZM578.19,352.63l-9.24,6.15c2.58.41,12.93-1.64,9.24-6.15ZM616.74,352.63c-2.13-.47-4.1.83-4.62,3.06h4.62s0-3.06,0-3.06ZM194.2,358.8c-2.92-.51-5.13,1.8-4.61,4.61l4.61-4.61ZM491.83,363.42h-3.07v4.61h3.07v-4.61ZM556.6,371.13h-4.61v3.07h4.61v-3.07ZM547.34,378.84v-4.63s-7.71,1.55-7.71,1.55c-1.14,5.8,4.7.43,7.71,3.08ZM95.49,409.67c.84-.85-2.22-8.02-3.06-6.15v6.15s3.06,0,3.06,0ZM604.41,405.07h-4.62s0,3.06,0,3.06c2.13.47,4.1-.83,4.62-3.06ZM66.19,415.86c-1.45-1.65-6.27,3.14-4.61,4.61,2.6,2.32,6.94-1.97,4.61-4.61ZM553.51,418.94h-6.16c1.4,6.24,5.21,6.54,6.16,0ZM524.16,420.56c-.44-.34-2.08,0-3.02-.07l1.56,6.16,10.77-3.11c-.5-3.67-6.24.5-8.31.14-1.31-.23-.81-2.98-.99-3.12ZM80.09,435.89c2.8,2.21,7.05-5.11,2.28-6.15-4.03-.88-3.58,5.12-2.28,6.15ZM303.69,429.74c-2.14-.79-9.61,2.16-7.7,3.05,2.88.24,6.78.43,7.7-3.05ZM633.72,459.02c2.33,2.33,6.57-4.59,2.31-4.59-1.02,0-3.19,3.7-2.31,4.59ZM605.95,491.4c.11-.12.58-3.26-.76-3.06-8.03,2.96-2.49,6.38.76,3.06ZM599.78,497.58c2.07-1.99-5.51-8.26-7.7-6.15-2.07,1.99,5.51,8.26,7.7,6.15ZM255.88,497.6l-7.71-1.54c1.79,3.93,5.62,6.98,7.71,1.54ZM558.14,497.59c-1.47-1.46-6.14,2.72-4.6,4.62.25.31,6.98-2.26,4.6-4.62ZM556.6,506.85c-8.44-2.44-17.24,2.84-24.32,4.2-51.4,9.86-114.94,14.06-167.62,17.44-31.73,2.03-71.83-11.13-97.49-8.15-2.09.24-10.9-5.98-9.72-.42.66,3.12,29.5,26.83,34.72,31.6,6.41,5.87,10.25,13.7,18.82,16.77,48.25,1.55,96.43,2.9,144.58.22,10.16-.56,24.14-4.44,33.7-4.04,9.69.4,13.78,6.95,22.64.23,16.05-12.18,24.02-29.74,37.51-44.14l7.17-13.7ZM260.5,553.1c-1.11-4.84-7.59-11.3-12.33-12.31l12.33,12.31ZM494.91,574.68c-.3-.2,3.59-6.04-2.29-6.18-2.45,1.37,1.67,6.92.75,7.72-3.42,2.98-5.45-3.97-7.68-4.61l-2.35,4.62c-1.92-6.07-5.49-3.42-2.31,1.54-4.84-2.51-12.53,2.24-16.03,1.68-1.68-.27-.22-3.19-1.7-3.23s.02,2.69-1.77,3.13c-8.16,1.99-18.01-.33-25.91-.09-2.6.08-5.2,1.59-7.91,1.62-7.36.08-14.9-1.6-22.26-.03l-.78-3.1c-5.45,5.04-8.12,1.55-12.24,1.48-1.25-.02.11,4.86-3.93,3.17l-3.07-7.7c.52,7.63-6.96,9.31-11.6,4.62-1.5,1.34.07,3.88-3.05,3.08-5.4-6.23-2.93-.52-4.87.02-4.78,1.33-10.72-1.11-15.19-1.25-2.37-.07-4.96,1.54-7.66,1.33-1.29-.1-14.18-2.68-14.56-3.33-.85-1.43.36-5.5-.15-6.03-2.9-3.02-6.13,1.71-3.09,6.18l-6.15-.78c11.08,5.74,18.67,15.74,27.73,23.16,24.72,20.23,37.23,15.2,67.09,16.19,15.3.51,24.09.65,40.05-.08,3.83-.18,14.82,1.8,16.23.91,1.07-.68,14.43-17.08,16.12-19.46,2.33-3.3,8.18-16.88,10.31-18.34.93-.64,4.09,1.81,4.44,1.49l1.55-7.72c-1.87-.41-6.84.57-7.72-.02ZM304.3,586.43c-4.76-5.07-12.05-12.32-19.11-13.27l11.61,10.81c5.06,1.13,6.03,4.18,9.21,7.66,4.42-3.29.19-3.18-1.71-5.2ZM363.82,633.32c-15.65-3.93-25.32-20.29-40.08-26.22,6.29,9.06,16.32,14.3,25.25,20.3,1.63,1.1,2.22,3.43,3.67,4.38,1.79,1.18,10.24,5.48,11.16,1.54Z"/><path class="cls-1" d="M437.87,426.65c1,9.48-5.62,3.62-8.64,3.53-11.85-.36-26.64,1.98-38.47,1.89-2.25-.02-5.19-2.05-9.51-1.89-3.76.14-5.89,4.51-8.94-.45-2,6.59-4.68,1.21-8.03.57-.97-.19-9.77-.65-10.27-.52-1.09.3-.93,2.55-1.22,2.67-1.65.68-3.8-3.76-5.13,1.9-2.81-4.39-7.15-.89-11.58-1.55,1.65-4.1,2.96-4.01-1.56-5.38l40.13-.76.75,3.09c1.51-3.1,1.64-3.27,5.15-3.73,10.89-1.42,22.87,1.5,32.78,1.51,8.17.01,16.32-1.25,24.55-.87Z"/><path class="cls-1" d="M507.25,412.78c.28,2.24-4.04,2.78-5.52,2.93-22.11,2.34-44.28,5.57-66.21,7.82-13.17,1.35-26.11-.06-39.3,0-.36-2.69,3.5-1.45,5.37-1.53,9.6-.39,19.83.73,29.29-.03,8.18-.65,17.7-3.65,26.26-4.58,16.65-1.81,33.35-3.95,50.09-4.63Z"/><path class="cls-1" d="M400.49,434.76c.42.24.22,2.47,1.3,2.65,2.03.33,8.57-2.09,11.39-1.5.27,2.26-4.02,2.76-5.52,2.93-6.67.75-12.42-.99-18.11-.81-12.12.36-24.71,1.45-36.49,2.5-1.27-4.06,4.53-3.98,7.12-4.41,3.66-.6,38.56-2.37,40.32-1.35Z"/><path class="cls-1" d="M332.22,423.56l-10.02-3.07c24.26,3.07,48.22-.17,72.47,0-.29,2.89-7.75,3.07-10.02,3.07h-52.43Z"/><path class="cls-1" d="M286.72,418.95l-16.25,1.59-36.19-2.38c17.6-4.92,34.66,1.88,52.44.79Z"/><path class="cls-1" d="M553.51,408.15l-34.8,7.61-9.9-1.47,25.08-3.43c6.39-2.96,12.68-3.12,19.63-2.71Z"/><path class="cls-1" d="M471.79,431.29c-4.29,5.54-15.2,2.6-21.59,4.6,4.34-7.26,14.53-3.96,21.59-4.6Z"/><path class="cls-1" d="M319.1,420.5c.37,2.68-3.51,1.45-5.37,1.52-3.85.15-7.74-.09-11.58-.02,2.47-3.96,12.84-1.96,16.95-1.51Z"/><path class="cls-1" d="M434.77,434.36c.74,4.42-.94,2.55-3.56,3.28-5.48,1.53-9.49,1.93-14.93-.22,1.29-3.91,8.17.2,11.24-.25,2.41-.36,4.34-3.36,7.24-2.81Z"/><rect class="cls-1" x="344.54" y="433.12" width="3.09" height="10.54" transform="translate(-128.92 732.22) rotate(-83.45)"/><polygon class="cls-1" points="300.6 420.49 289.82 422.01 290.55 418.96 300.6 420.49"/><path class="cls-1" d="M479.5,429.74c-.82,3.07-3.29,3.47-6.17,3.05.82-3.07,3.29-3.47,6.17-3.05Z"/><rect class="cls-1" x="331.46" y="435.91" width="7.7" height="1.51"/><path class="cls-1" d="M551.98,263.19c-.52,2.23-2.49,3.54-4.62,3.06v-3.07s4.62,0,4.62,0Z"/></svg>