<?xml version="1.0" encoding="UTF-8"?><svg id="Layer_1" xmlns="http://www.w3.org/2000/svg" viewBox="0 0 800 800"><defs><style>.cls-1{fill:#fff;}</style></defs><path class="cls-1" d="M614.2,207.58c4.45,9.2.69,4.39,0,13.01-.36,4.52,2.38,10.67,2.66,15.34,1.21,20.44-.37,43.79.49,65.77.97,24.95-4.06,49.09-5.63,73.75-6.76,106.05-7.48,211.6-16.81,317.91-.92,10.46-5.57,46.33-2.58,53.19,1.65,3.79,7.88,6.18,5.26,9.98-6.57,1.27-10.09,10.28-15.22,9.45-.77-.13-.83-3.82-2.08-3.95-12.47-1.32-32.46,3.98-45.18,3.9-51.86-.33-111.86-7.66-164.61-11.42-49.16-3.5-107.12-13.2-154.88-13.09-3.05,0-6.84-2.51-9.37-1.85-1.64.42-8.58,15.18-4.92-1.99-6.4-3.28-19.88,4.42-23.24,3.54-.79-.21-11.65-8.86-12.81-10.05-4.37-4.48-1.92-10.23-9.34-8.65,3.23-5.45,6.1-15.66,7.13-22.17,2.26-14.35-.08-28,.29-41.13,1.64-57.29,4.32-115.31,5.74-172.04,1.78-70.96,7.88-145.72,18.98-215.67,2.5-15.73,2.91-25.35,7.54-41.63C240.69,71.6,397.37-15.96,548.11,70.26c12.32,7.05,16.22,17.67,22.99,24.29,5.61,5.49,11.43,5.9,15.51,16.74,6.23,16.55,4.93,11.65,13.81,25.8,4.27,6.82,11.56,26.59,12.74,34.57.84,5.69.15,34.09,1.04,35.93ZM460.4,70.01v-5.66s-5.66,1.91-5.66,1.91c-.91.77,3.32,4.98,5.66,3.75ZM271.32,128.64c3.08-1.36,6.26-4.15,5.64-7.56-3.08,1.36-6.26,4.15-5.64,7.56ZM416.93,138.09c1.81,1.79,7.53-3.33,5.64-5.66-.31-.38-8.56,2.77-5.64,5.66ZM398,217.51c-8.35-1.43-4.28,2.16-6.73,7.39-10.44,22.35-26.35,41.31-38.31,61.98-1.16,2-7.68,14.01-7.88,14.82-1.4,5.59,9.42-.75,4.71,8.48-1.2,2.36-19.88,14.51-23.13,14.92-3.44.44-1.94-3.31-3.57-3.67-4.76-1.04-25.04,10.31-30.95,12.41-3.99,1.42-8.7.72-12.93,2.19-10.09,3.52-19.49,10.84-30.59,10.07-.72,3.44.92,3.74,3.28,5.21,14.78,9.26,37.02,17.2,52.9,26.53,10.23,6.01,27.62,21.98,38.29,25.8,2.77.99,7.96-1.8,11.42-.8.8.58-6.28,9.39-6.81,11.31-2.44,8.79,19.54,44.79,24.78,54.86,2.67,5.13,5.66,19.87,11.36,22.69,3.17,1.57,3.02-2.23,3.69-3.77,6.14-14.08,22.92-54.54,25.29-67.61.8-4.4-2.04-9.82-.78-11.84,2.26-3.61,23.9-11.63,29.3-14.32,19.9-9.87,39.49-22.01,59.35-33.31,5.97-3.4,13.52-7.67,20.23-9.11l-2.41-4.2c-18.6-4.54-37.27-15.66-55.7-19.93-3.25-.75-19.96-4.01-22.36-4.19-2.72-.2-7.09,2.48-8.17,1.73-.84-.58-8.28-15.72-9.27-18.26-4.06-10.43-7.22-23.53-10.88-34.51-5.87-17.62-15.51-35.11-14.14-54.9ZM557.26,229.31l-8.43,8.53,1.94,1.92,8.43-8.53-1.94-1.92ZM271.3,274.27c-3.58-.62-6.29,2.2-5.65,5.65l5.65-5.65ZM505.79,291.26c.58-2.61-1.02-5.03-3.75-5.66v5.66s3.75,0,3.75,0ZM331.82,414.17c-2.17-7.18-4.23-7.64-5.66,0h5.66ZM312.9,433.09c.66-.77-2.48-11.45-5.65-11.33-.52,1.47,1.96,15.6,5.65,11.33ZM337.48,427.44h-3.76c-.61,2.79.83,3.93,2.84,5.65l.93-5.65ZM341.24,436.9c-5.62-4.39-3.96,8.7,3.82,7.53-1.71-1.44-3.48-7.27-3.82-7.53ZM575.76,593.86h-3.77s0,7.54,0,7.54h1.85s1.91-7.54,1.91-7.54Z"/></svg>