<?xml version="1.0" encoding="UTF-8"?><svg id="Layer_1" xmlns="http://www.w3.org/2000/svg" viewBox="0 0 800 800"><defs><style>.cls-1{fill:#fff;}</style></defs><path class="cls-1" d="M413.56,60.1c.89,1.11,3.25,1.12,3.71,2.98.26,1.04-.96,3.44-.36,5.87,10.4,42.61,29.41,80.74,43.54,122.11,12.45,36.46,24.85,72.68,38.47,108.81l88.22,42.51c8.75,3.42,28.83,5.99,34.77,9.91,2.72,1.79,3.33,4.02,5.33,6.26,2.13-7.21,2.13-.25,5.41,1.63,9.78,5.6,28.43,5.87,37.22,8.66,6.38,2.02,18.02,9.53,27.66,12.09,28.03,7.45,43.52,10.9,70.16,24.16,20.95,10.43,16.54,17.34,15.56,39.17-4.53,3.87-10.45,3.28-15.46,5.21-19.46,7.51-16.82,3.34-36.13,5.24-24.48,2.41-49.25,9.84-73.04,12.99-11.37,1.5-20.73,5.09-33.25,6.48-13.44,1.5-35.13,5.95-48.23,11.37-10.03,4.15-20.26-.06-31.07,3.67-12.09,4.17-19.51,4.22-30.53,7.37-3.22.92-23.76,7.66-24.82,8.43-3.39,2.46-4.55,14.43-6.27,18.55-8.74,20.96-22.82,41.13-31.41,61.27-10.62,24.92-15.91,52.53-24.42,78.18-3.61,10.89-10.33,22.82-14.11,33.88-7.02,20.53-11.7,63.73-27.33,76.92-12.65,10.68-9.65-4.74-11.4-11.56-12.65-49.32-22.29-99.57-34.56-149.26-9.85-39.85-20.16-81.14-29.66-120.76-.71-2.96-5.81-14.93-7.81-17.05-1.57-1.67-18.7-12.42-22.05-14.35-12.7-7.29-26.49-12.2-39.84-18.08-55.72-24.56-114.51-43.91-168.2-73.4-10.54-5.79-36.91-20.45-45.04-27.31-2.61-2.2-13.23-14.42-12.91-17.2.04-.31,4.22-4.31,4.53-4.35,1.8-.22,4.13,1.36,6.02,1.07,22.75-3.55,45.32-2.68,67.71-4.75s46.88-7.17,70.16-9.28c46.2-4.19,93.32-2.96,138.55-10.41,3.81-.63,12.38-1.47,14.98-3.22,6.84-4.6,15.43-63.23,18.72-75.61,14.45-54.39,38.03-108.76,53.71-163.07,8.57-11.25,16.77-3.47,23.47,4.88ZM393.06,97.1h-3.29c-.4,3.05-.06,4.82,2.48,6.6l.81-6.6ZM468.64,313.32c1.31-1.04,1.92-3.52,3.91-5.15,2.72-2.23,9.81-4.45,9.63-8.02-24.81-57.88-38.08-120.27-66.77-176.55-3.8.02-5.47,15.22-5.77,19.02-3.91,48.42-1.93,106.48-.92,155.55.24,11.51,1.75,25.44.99,36.48-.72,10.39-2.6,5.33-.16,16.55.49,2.25-.99,11.74,3.38,9.86,12.51-15.9,27.99-26.5,43.37-38.92,4.52-3.65,8.94-6.1,12.34-8.81ZM282.05,310.76c-3.61-2.68-3.46,3.87-5.64,4.76-4.62,1.89-3.99-2.88-4.29-3.08-3.61-2.52-3.19,2.93-4.73,3.93-4.38,2.85-15.71-.37-20.83-.08-39.28,2.26-81.46,8.18-120.76,12.45-8.2.89-17.01-1.48-24.98,1.49-2.29.86-2.82-.54-2.31,3.48l284.63,51.3c.53-.47-4.35-9.88-4.85-10.44-1.53-1.69-4.31-1.17-5.77-2.85-14.11-16.29-23.91-33.32-38.98-50.45-5.66-6.44-3.21-11.14-14.12-10.84-5.59.16-34.32,4.55-36.87,2.97-.59-.37-.22-2.44-.5-2.65ZM487.4,322.16c-4.46.12-15.18-4.45-14.88,3.28.62.48,14.34.59,14.88-3.28ZM546.97,345.29c-.99-3.76-5.19-3.45-8.27-3.28.99,3.76,5.19,3.45,8.27,3.28ZM110.09,346.98h-8.26v1.62h8.26v-1.62ZM502.28,366.83h-4.95v3.29h4.95v-3.29ZM393.06,380.05c.51-2.28-.89-4.4-3.28-4.96v4.96s3.28,0,3.28,0ZM477.09,408.56c-.67-.36-10.93,1.52-15.17,1.11-8.31-.8-31.2-6.3-38.22-9.79-2.33-1.16-1.4-2.45-4.12.87,8.26,8.35,14.98,18.03,23.09,26.53,12.86,13.48,27.49,25.58,40.43,39.01,3.49,3.62,12.96,17.71,16.6,17.93,10-1.66,19.36-6.6,29.07-8.98,42.07-10.29,85.38-17.31,127.77-26.15,27.49-5.73,54.95-11.9,82.41-17.73.35-4.37.17-2.74-2.52-3.24-12.56-2.34-27.14-3.36-39.96-4.4-10.73-.87-23.99-3.83-32.81-4.04-11.22-.26-24.91,3.38-36.41,3.53-26.21.36-56.05-3.79-79.37-3.35-21.63.41-53.56-2.07-70.78-11.3ZM387.73,614.65c1-1.94-3.58-35.31-3-43.52.81-11.4,6.57-24.29,6.67-34.69.36-35.62-1.94-71.6,1.21-107.62l-2.03-20.59c-15.04,15-28.43,30.69-45.62,43.71-7.77,5.89-17.8,12.42-26.39,16.68,7.26,17.34,9.21,35.98,13.71,54.13,5.31,21.39,14.08,44.6,20.22,68.23,7.12,27.43,15.87,62.15,20.3,89.81,1.22,7.66.67,15.94,2.07,23.63,2.05,2.75,3.01-.19,3.31-2.46.78-6.06.86-14.87,1.3-21.55,1.21-18.34.62-50.93,8.24-65.75ZM302.06,461.13c-5.46-3.69-11.38-10.75-18.19-9.9.9,2.47,5.88,4.57,8.25,5.8,3.09,1.6,6.45,4,9.95,4.1ZM487.39,490.93c1.12-1.29-4.37-9.28-6.59-9.92-.45,1.47,3.91,13.03,6.59,9.92Z"/></svg>