<?xml version="1.0" encoding="UTF-8"?><svg id="Layer_1" xmlns="http://www.w3.org/2000/svg" viewBox="0 0 800 800"><defs><style>.cls-1{fill:#fff;}</style></defs><path class="cls-1" d="M606.8,197.94c3.85,3.56,7.58,11.36,11.44,15.3,3.26,3.32,20.13,14.7,20.78,15.84.77,1.34-1.97,5.61-1.15,9.38,1.79,8.16,14.5,20.73,17.66,31.08,3.75,12.27.45,33.09,7.9,43.16,4.86,6.58,44.66,14.23,54.9,20.29-1.36,12.76,13.26,43.9-8.11,37.02-9.77,8.67-17.72,21.53-27.11,30.16-6.72,6.17-22.08,12.19-26.19,16.35-36.49,37-63.12,62.11-102.47,95.75-2.68,2.29-18.96,18.19-19.41,19.49-3.59,10.23,6.68,16.35,8.88,24.44,6.65,24.49,1.13,64.85,1.42,91.44.11,10.34,6.29,18.54.2,30.68-1.68,3.35-7.77,6.31-8.23,8.94-.75,4.26,12.94,12.39,8.5,18.02-2.34,2.96-28.61,7.01-34.07,7.27-17.76.83-36.42-4.45-53.58-4.96-48.56-1.45-96.15,2.29-145.24-5.48-22.38-3.54-49.95-17.18-72.2-22.61-10.02-2.45-21.57-1.89-31.75-3.53,15.52-11.15,4.28-9.81,5.14-15.35.41-2.65,5.7-5.59,6.01-10.07.37-5.41-4.66-18.39-4.93-26.81-.59-18.68.45-41.76.97-60.88.2-7.29,3.51-14.27,2.79-21.91-.56-5.88-5.59-1.54-5.09-5.91,9.77,2.47,3.63-25.1,4.86-26.78l7.24,4.86,1.44-12.25-67.06-83.77-81.14-108.15-1.16-17.72c15.15-18.48,22.21-48.19,42.17-62.56,4.38-3.16,11.26-3.56,14.79-7.09,3.44-3.45,10.99-22.14,18.13-30.49,25.06-29.35,36.46-28.05,71.37-33.16,26.8-3.92,15.22-16.36,25.25-33.1,8.31-13.88,53.37-18.45,69.57-22.8,27.17-7.3,33.15-16.5,65.86-14.3,17.5,1.18,37.97,11.34,51.83,11.69,5.74.14,6.51-4.15,11.81-2.69,4.19,1.16,44.6,20.37,49.79,23.44,15.38,9.12,20.44,27.86,26.54,31.8,5.32,3.43,16.91,3.11,23.67,5.5,17.53,6.2,43.94,27.53,57.97,40.49ZM420.49,114.43c-19.4-1.25-43.3-12.08-61.7-2.14-5.73,3.09-8.02,10.59-9.35,11.35-2.8,1.6-8.46-.15-9.21.51-1.82,1.59,5.49,22.44,6.13,26.69,7.62,50.62,8.12,102.41,15.04,152.7.95,6.89,9.42,53.86,7.49,55.94-1.26,1.36-5.47-1.46-4.36,4.1.45,2.25,4.45.33,5.01,2.8.92,4.07-1.86,9.09-1.24,13.38,6.07,41.84,7.8,83.32,13.28,124.81,1.55,11.75,6.12,23.06,4.88,35.27,4.07.58,2.42-4.8,2.99-7.79,2.83-14.92,5.59-34.23,6.69-49.35,6.87-95,7.92-192.02,15.82-284.36,2.4-28.03,4.47-56.02,8.53-83.9ZM512.38,172.36c4.23-9.43-45.39-60.35-57.88-53.05-.26.15,2.14,3.08.22,6.07-2.21,3.45-8.08,5.63-9.44,10.21-11.07,119.35-13.89,237.77-22.19,356.89-1.27,18.27-8.1,36.14-7.46,54.65l16.39-55.29c29.02-102.72,50.29-209.65,75.02-313.81,1.43-6.04,5.16-5.28,5.33-5.67ZM315.92,121.71c-6.61-.47-10.74,4.38-16.95,6.14-7.25,2.05-17.03,2.24-22.57,4.17-1.17.41-20.67,11.63-21.46,12.59-5.91,7.18,2.79,10.12,2.24,14.31s-9.23,14.54-9.07,22.4c.09,4.57,4.77,10.31,5.89,15.7,17.63,85.26,51.16,167.62,77.16,251.02l23.64,50.48c3.08-14.42-3.16-27.51-4.53-40.4-5.29-49.75-5.52-104.15-12.61-152.72-2.07-14.19-10.28-32.78-11.99-48.79-3.28-30.68,3.58-65.6-.82-96.86-1.59-11.29-9.02-25.85-8.93-38.05ZM449.67,513.11c4.32-2.16,7.18-9.74,8.98-14.09,29.38-71.22,60.36-143.39,97.51-211.23,11.58-21.15,26.72-42.4,38.92-63.38,2.1-8.22-10.5-18.32-16.56-23.71-8.6-7.66-35.75-28.66-47-25.23-7.03,2.14-13.33,43.65-15.48,52.73-8.55,36.11-18.31,71.71-25.28,108.56-10.18,53.75-23.08,112.04-39.7,164.39-1.32,4.15-1.95,7.6-1.38,11.97ZM228.13,177.94c-16.72-2.91-30.14,3.97-43.27,13.26-8.4,5.94-37.84,33.34-35.72,42.34.9,3.79,18.9,36.02,22.31,41.16,29.56,44.62,56.09,71.79,79.89,121.88,12.86,27.06,34.46,54.46,50.03,79.46,11.82,18.98,21.72,39.45,36.41,56.52-2.12-15.02-10.81-27.64-15.77-41.33-32.72-90.4-58.37-180.47-82.01-272.92-3.23-12.65-9.46-27.03-11.88-40.36ZM136,245.71c-14.04,2.77-16.59,17.5-22.2,27.58-3.06,5.49-13.53,13.83-10.66,20.92.79,1.94,14.66,22.68,17.31,26.64,46.39,69.35,93.94,122.74,153.87,179.3,8.14,7.69,13.74,17.99,24.58,22.68L136,245.71ZM495.85,479.07c10.8-7.17,15.36-21.05,23.27-31.4,30.85-40.35,64.5-77.97,95.87-118.05,3.81-4.86,16.79-14.83,18.25-18.35.7-1.69-1.5-32.38-2.37-36.54-1.62-7.77-6.21-14.39-12.32-19.29l-24.01,39.14c.87,13.99-17.87,20.61-19.91,24.01-.62,1.03.29,12.35-5.86,22.51-17.51,28.93-29.51,60.88-45.74,91.04-8.36,15.54-23.24,28.85-27.19,46.93ZM678.14,350.28c-7.65-2.01-29.03-23.17-36.06-19.13-7.37,14.65-20.2,26.85-29.66,39.66-7.3,9.89-8.34,11.82-17.04,21.86-19.42,22.41-35.94,48.85-55.74,73.1-29.32,35.91-14.2,29.57,12.12,7.26,34.5-29.24,67.22-63.26,100.91-93.57,3.95-3.55,27.67-26,25.45-29.18ZM413.16,632.21c-1.2.91-19.51-9.58-28.28-9.55-8.54.02-19.15,9.52-28.41,4.5-3.38-1.83-5.67-6.04-9.2-8.03-37.82-21.4-49.29-43.67-77.77-72.95-1.83-1.88-19.92-17.82-21.62-16.04,4.03,38.63-4.46,85.07-.14,122.88.46,4.03.22,5.65,3.95,8.2,3.85,2.64,62.31,13.79,70.58,14.52,54.3,4.81,112.19.38,167.28,7.73,7.54,1.01,15.06,6.15,22.17,7.04,4.17.52,3.72.23,3.65-3.65l-4.97-142.17c-4.71,5.91-32.7,26.79-33.74,30.88-2.19,8.57,9.19,9.87,11.88,15.28-9.6-2.01-7.74,8.12-13.33,7.34-2.1-.3-.26-3.63-4.23-5.59-20.06-9.92-23.7,4.23-35.93,13.99-4.58,3.65-15.68,7.8-19.45,12.36-2.38,2.87-.64,11.89-2.42,13.24ZM391.29,554.42c.63-4.53,0-8.41-4.82-9.71v9.71s4.82,0,4.82,0Z"/></svg>