<?xml version="1.0" encoding="UTF-8"?><svg id="Layer_1" xmlns="http://www.w3.org/2000/svg" viewBox="0 0 800 800"><defs><style>.cls-1{fill:#fff;}</style></defs><path class="cls-1" d="M356.86,86.4c3.06,1.29,13.87,18.13,23.6,14.62-6.65,11.32-25.22,7.38-39.41,10.33-84.23,17.49-166.43,67.46-201.67,147.95-85.95,196.35,53.87,382.94,245.65,430.46,59.55,14.75,150.47-.54,202.92-32.93,116.75-72.09,157.47-249.47,69.19-359.12-42.69-53.03-91.63-84.01-161.26-93.94-189.4-27-348.43,96.69-263.9,294.53,22.73,53.21,101.32,102.53,155.49,117.57,104.68,29.07,178.51-8.7,208.71-114.15,23.19-80.98,14.16-140.11-56.21-191.47-72.28-52.75-182.18-44.26-232.65,34.01-16.6,25.74-20.01,87.75-9.03,115.8,8.94,22.85,45.25,67.61,67.65,77.81,46.44,21.14,76.68,7.79,106.31-29.91,14.82-18.86,23.5-62.86,20.57-86.76-2.81-22.89-44.84-45.93-64.78-34-6.32,3.78-27.75,27.01-30.33,33.44-8.18,20.35,8.06,60.67,33.67,42.59,1.48-2.06-4.74-15.81-6.43-17.65-1.53-1.65-17.17-7.99-12.8-15.45,6.71-11.44,24.22,2.33,32.44,1.35,8.65-1.03,14.26-12.06,18.44-11.3.9.16,13.99,10.64,14.21,11.53.55,2.27-14.72,38.57-17.68,43.11-2.8,4.3-12.79,11.88-14.58,14.79-3.29,5.35,3.44,13.32-14.03,11.53-8.7-.89-37.68-8.96-44.65-13.03-2.6-1.52-24.14-27.39-26.35-31.05-13.75-22.76-.33-46.66,7.11-69.65.78-2.42-1.74-6.4-.58-8.38,1.13-1.93,6.28-3.08,8.54-6.63,10.93-17.11,2.76-17.36,26.36-24.67,19.26-5.97,59.04-6.67,77.93.18,5.81,2.11,41.08,21.89,43.91,25.73,1.4,1.91,2.81,6.81,3.79,9.46,7.72,20.79,4.41,29.6,7.22,47.71,2.47,15.92,9.02,19.76,6.86,41.36-1.02,10.22-8.32,19.82-11.08,26.85-1.27,3.23,1.49,11.21-1.48,16.11s-24.6,11.07-25.6,12.1c-.71.72,2.75,4.96.28,8.92-2.18,3.51-33.3,29.02-37.9,31.76-30.68,18.29-70.31,7.28-102.87-1.13-5.74-1.48-1.84-2.38-13.1-4.58-16.57-3.24-31.49-16.6-42.95-29.33-32.73-36.35-51.56-74.01-51.09-124.47.05-4.88,4.15-41.95,5.21-45.27.95-2.97,6-2.44,7.23-6.03,4.77-13.9,5.64-16,11.66-29.26,7.94-17.47,7.17-24.5,23.91-38.04,39.93-32.28,109.26-50.33,159.44-42.72,56.93,8.63,92.49,31.37,134.69,66.92,7.29,6.14,29.24,53.87,31.99,64.98,4.91,19.77,1.92,48.5,6.41,64.91,1.59,5.83,7.49,12.84,7.45,15.62-.15,9.91-17.88,52.32-17.8,61.3.03,3.4,4.52,5.6,3.98,9.03-4.58,29.03-43.18,70.63-66.7,91.58-35.95,32.03-96.95,40.64-143.34,31.39-63.41-12.65-101.62-26.47-152.53-66.95-41.01-32.61-62.54-56.03-79.27-107.03-46.5-141.75,15.76-263.72,159.64-305.15,93.95-27.05,204.01-16.4,281.96,44.74,5.97,4.69,20.98,22.71,24.97,24.85,2.8,1.5,7.41-.31,9.08,1.03,1.06.85.82,6.08,2.91,8.53,9.17,10.73,17.7,17.1,26.59,29.54,95.31,133.24,47.61,321.79-94.52,400.06-18.83,10.37-66.56,30.48-87.04,32.95-15,1.81-28.85,1.96-44.04,4.41-36.64,5.93-38.35,2.49-73.11-2.98-123.44-19.42-272.56-126.58-303.32-255.93-40.03-168.31,43.46-317.56,210.07-364.27,8.55-2.4,50.97-12.37,56.06-10.23ZM487.63,261.78c-3.52-.79-6.78,1.37-7.64,5.07h7.64s0-5.07,0-5.07Z"/></svg>