<?xml version="1.0" encoding="UTF-8"?><svg id="Layer_1" xmlns="http://www.w3.org/2000/svg" viewBox="0 0 800 800"><defs><style>.cls-1{fill:#fff;}</style></defs><path class="cls-1" d="M410.42,26.18c5.99,5.76,6.26,1.35,11.63.68,7.57-.95,20.14-2.83,27.23-1.61,7.06,1.22,21.27,11.47,25.78,11.18,8.23-.54,16.28-12.61,23.13-15.7,7.17-3.24,30.05-5.17,38.09-4.73,1.54.08,13.68,5.73,15.44,6.79,2.67,1.61,4.31,8.08,5.26,8.65s3.64-1.52,4.62-.77c1.71,1.3.74,5.43,2.47,5.92,2.93.83,9.47-1.97,14.15-1.65,11.9.8,44.81,12.65,51.97,22.39,2.51,3.41,3.46,11.05,3.94,11.41.77.57,8.11-2.69,10.66-3.04,11.53-1.57,25.37-2.15,36.1,2.23,2.13.87,15.63,8.94,16.3,10.04,1.24,2.04-.28,5.04-.06,5.17.77.47,3.09-.57,4.86,1.15.63.61,8.1,13.5,8.81,15.12,2.55,5.78-.38,11.8,1.48,14.56,1.08,1.6,9.32,3.85,11.99,5.78,4.97,3.6,19.84,20.27,20.72,25.85.64,4.03-4.12,8.3,3.7,7.87-2.04,10.66-9.31,14.33-15.63,20.69-.91.91-.43,3.75-2.2,5.07-4.07,3.02-6.26-1.15-4.78,10.54-7.05-3.93-6.82,5.4-11.29,7.36-1.6.7-2.97-2.94-7.33-1.13s-3.59,4.74-3.99,5.04c-3.96,3.1-3.06-7.11-7.39-8-3.55-.73-5.68,9.85-13.54-.05-1.87,7.55-2.69,10.43,3.21,16.12-4.68-.12-8.35,3.01-12.69,3.99-1.66.37-4.43-1.17-5.06-.73-.17.11,1.8,3.01.16,4.04-7.82,4.94-31.04,2.05-35.65,14.52-1.1,2.97,3.14,2.29,3.29,3.22.87,5.2-17.1,21.29-21.88,25.03-5.51,4.32-16.32,10.05-21.24,14.99-2.01,2.02-6.52,13.29-10.02,10.54-.54-.42.08-2.73-.2-2.96-3.82-3.18-2.69,3.54-3.54,4.49-.69.76-3.29-.18-4.64,1.33-5.62,6.35-.61,7.55-13.33,13.94-8.98,4.52-19.12,11.65-28.12,15.29-4.28,1.73-14.03,2.74-16.09,4.08-1.17.76-1.59,4.01-4.66,5.82-26.16,15.53-57,23.65-83.02,39.7l-6.32-.78c1.86,5.19,4.22,9.89,4.74,15.58.31,3.45-1.65,5.94-1.59,7.72.03.95,3.29.94,3.39,1.73.45,3.5-3.33,5.5-3.01,7.71.23,1.57,3.04,4.59,3.6,7.88.66,3.89,1.8,11.73,2.11,15.32.51,5.8-4.14,5.08-4.37,5.4-2.36,3.26,2.59,3.24,2.74,3.46.42.59-.85,2.31-.55,3.41.5,1.83,2.72,3.57,2.5,5.02-.38,2.58-7.87,5.27-7.92,6.64.71,2.58,6.19,3.75,6.41,4.06,2.41,3.4-8.37,5.31-4.83,8.03.55.42,4.06-.58,4.69.09.76.81-.35,7.22.48,10.08s5.29,4.85,6.12,6.78c.52,1.21-2.41.42-3.25,1.86-5.32,9.1,4,16.15,3.26,16.67-4.29.03-7.87-1.5-6.51,4.1,1.04,4.27,4.33,3.5,4.72,4.16.44.73-2.1,3.17-1.14,4.35.44.54,2.93.03,2.98,1.12.2,4.42-10.22,5.98-.05,12.92.53,1.38-3.27.29-3.31,1.69-.02.71,1.49,13.08,1.73,14.15.29,1.33,3.24.5,3.38,3.44.28,6.06-3.59,12.12-4.46,17.88-1.57,10.42,5.23,18.7-7,24.15l8.05-.81-4.82,17.73,4.83-3.21c-2.53,5.33,2.75,10.38,1.25,15.37-1.89,6.26-3.81,18.8-5.69,27.78-1.17,5.6-1.07,17.58.66,22.62.9,2.64,4.2.97,3.77,3.58l-6.43,3.22c6.11-.36,1.55,2.86,1.51,5.59-.02,1.08,3.4.6,3.38,1.71-.05,2.66-3.37,3.83-3.03,6.13.18,1.25,3.25,5.33,4.15,8.81,2,7.75-3.12,20.63,5.27,22.99.36,3.47-6.97.65-8.05,1.6-.88,2.91,2.35,3.72,2.77,5.86.34,1.7-1.35,4-.93,5.93.77,3.51,5.5,3.73,6.09,4.56.75,1.04-2.58,6.78-1.5,7.85.77.76,7.98-1.72,3.85,3.22-4.84,5.79-18.6,13.5-.62,12.93.74.62-1.67,4.2-1.71,5.56-.05,1.72,4.07-.26,3.32,2.48l-5.65,1.65-8.85,8.06c2.29-5.21-3.03-6.83-3.2-7.57-.79-3.34.26-8.33-.23-12.42-.2-1.7-.63-7.56-3.02-7.44,1.28,6.34-1.12,13.2-1.46,18.66-.05.86,3.2-.04,3.21,3.01.02,5.57-5.47,8.96-.15,13.8-9.48,2.22-13.29-4.62-9.69,8.08-3.71-.57-10.65-1.88-14.07-.56-3.99,1.53-2.5,6.76-4.63,7.13-12.21,2.13-12.94-23.93-15.18-25.94-.43-.39-8.41,2.63-11.27.02,2.49,5.21.05,10.72-4.89,13.64-10.39,6.14-9.16-2.49-13.06-7.83-1.88-2.58-5.03-1.88-4.65-4.16,12.25-3.94-.39-7.73-1.37-10.77-3.67-11.35,4.69-46.91,7.06-60.22,3.73-20.94,5.09-41.92,11.39-62.52,1.88-6.15-2.67-5.22-2.62-6.12s3.07-16.52,3.37-17.37c.54-1.49,3.26-1.08,3.2-1.99-.26-4.55-3.06-10.25-2.24-18.29,2.59-25.41,2.56-50.67,4-76.68.63-11.28,2.97-16.42,2.29-28.21-2.18-37.56-5.17-74.2-9.79-111.58-.35-2.86-1.28-5.43-2.4-8.03l9.68-3.25.8,4.84,4.01-4.03c-7.92-2.33-9.27-11.15-13.84-16.79-10-12.33-37.23-25.35-51.2-35.93-23.68-17.94-59.6-57.05-79.36-80.38-3.66-4.31-16.66-19.49-18.64-23.45-1.61-3.23.49-5.36-2.35-7.23-14.88,3.26-32.55,15.47-47.49,10.4-7.77-2.64-30.04-23.58-35.54-30.61-13.92-17.78-18.33-37.39-19.5-59.61-.3-5.61,2.62-19.71.19-24.02-1.48-2.64-5.34.3-6.54-1.84,5.08-3.78,5.48-9.78,10.73-13.48,8.1-5.71,17.48-1.73,23.65-5.25,5.61-3.21,16.24-15.77,22.52-18.14,3.02-1.14,5.74.76,5.94.54.56-.64-.35-4.09,3.34-7.22,13.82-11.72,38.62-12.36,55.21-7.16,1.31.41,1.26,2.91,2.3,3.13,6.81,1.39,19.68-13.89,25.5-17.84,2.63-1.79,19.07-10.7,21.47-10.97,3.55-.39,5.72,1.43,7.52,1.38.98-.03.74-2.95,1.99-3.26,11.5-2.78,21.54-.81,32.08,1.53,5.37,1.19,10.18-2.97,8.81,4.93,4.61-3.26,7.82,1.46,10.21,1.32,1.92-.11,8.53-4.47,12.3-5.44,17.43-4.49,43.34-11.6,59.65-3.03,3.69,1.94,4.74,5.85,7.15,8.18ZM307.7,206.36c-2.23-2.06-9.91-5.1-12.53-3.06-1.68,1.3-1.07,5.26-2.44,7.32-.28.42-6.57,7.12-6.98,7.44-4.23,3.31-12.23,3.7-12.79,4.3-.62.66.14,3.14-.63,4.01-1.34,1.53-7.25.46-6.08,5.29,2.34.19,4.51,1.09,6.37,2.51,20.54,15.64,32.12,35.58,49.02,51.84,6.42,6.18,17.87,13.88,24.72,20.46,3.16,3.04,6.57,8.95,9.53,12.34,2.28,2.61,2.61-.57,5.55-.03-5.82-3.22-3.27-5.81-3.53-6.15-.7-.92-3.97-.92-4.38-2.81-.32-1.49,2.04-4.3,1.35-5.33-.31-.46-4-1.12-6.15-4.45-2.74-4.24-8.73-16.26-11.39-21.32-7.24-13.78-13.28-29.4-18.31-42.61-2.59-6.81-7.2-25.93-11.33-29.76ZM613.15,205.87c-4.15-5.78-16.51,7.04-18.74,11.09l-48.09,21.3c-5.41,4.77-1.85,7.52-2.68,11.69-2.76,13.88-5.53,27.18-6.3,41.42,20.83-12.04,35.48-31.97,50.98-49.85,9.89-11.41,15.45-17.7,23.31-29.93.96-1.5,2.53-4.32,1.53-5.72ZM390.48,212.32c-5.35-1.02-2.46,3.93-3.73,7.64-1.1,3.21-8.64,4.04-11.31,5.25-.93.42-.89,3.11-2.16,3.31-1.6.26-15.7-1.83-18.37-2.4-7.12-1.5-15.11-6.41-20.06-7.38-3.01-.59-2.33.3-2.46,2.49-.42,6.96,2.32,4.96,3.1,6.89,12.81,31.57,29.16,63.24,47.39,91.01,2.89,4.41,3.95,11.33,10.03,12.6l-2.41-119.41ZM496.98,225.21c-5.41-1.57-7.5,3.12-10.92,4.43-5.25,2.01-18.64,4.64-23.86,5.16-13.4,1.33-22.93-.82-35.18-6.58-4.96-2.33-16.89-12.57-17.98-12.57-7.03-.01-4.64,16.37-4.02,20.87l6.43-1.6c.98,18.48,2,37.05,1.7,55.73-.05,3.3-2.02,7.2-1.77,9.4.14,1.17,3.02.23,3.44,3.32,1.09,8.03-3.93,35.35,1.41,38.9,6.65,4.43,16.26-7.94,22.22-8.77,3.54-.49,5.06,2.65,6.12,2.69,2.13.08,5.87-9.43,8.03-1.25,3.72-6.59,9.05-3.69,14.19-5.18,4.12-1.19,24.18-10.83,30.04-13.52,7.33-3.37,14.25-9.31,22.9-11.44-.03-21.56-.63-43.23-.57-64.72,0-2.17-1.36-4.91-1.24-5.87.19-1.48,4.98.11,3.27-4.12-5.32.28-22.55-12.23-25.82-9.69l1.62,4.81ZM585.72,263.93l-1.63-6.43h-1.58s0,6.44,0,6.44h3.22ZM450.18,347.86h-3.21s0,4.83,0,4.83c2.33-.54,3.7-2.61,3.2-4.83ZM424.36,588.28c-2.88-.44-5.66.09-6.45,3.19,2.1.66,8.11-2.42,6.45-3.19ZM385.64,599.55v-8.05c-.52-1.15-8.81,8.73,0,8.05ZM385.64,606.03c-3.25-1.66-10,4.35-8.05,6.43,1.27,1.35,7.35-5.12,8.05-6.43ZM377.58,614.07v6.47s3.22,0,3.22,0v-6.47s-3.22,0-3.22,0ZM424.36,625.37c.43-.48-.24-4.86,0-6.44-2.74-.77-.84,3.2-2.29,3.12-1.31-.08-3.5-2.31-5.76-1.5.24,2.84,6.67,6.37,8.06,4.82ZM388.87,670.54c2.94.55,5.36-1.77,4.82-4.82l-4.82,4.82ZM395.33,686.67c.26-.2-2.3-4.57-1.63-6.43h-1.58c-2.62,3.39.49,8.51,3.21,6.43ZM356.6,709.27c.5-2.23-.87-4.29-3.2-4.83v4.83s3.2,0,3.2,0Z"/></svg>