<?xml version="1.0" encoding="UTF-8"?><svg id="Layer_1" xmlns="http://www.w3.org/2000/svg" viewBox="0 0 800 800"><defs><style>.cls-1{fill:#fff;}</style></defs><path class="cls-1" d="M623.03,185.41c46.58,41.88,67.63,95.81,88.27,152.73,4.21,11.61,11.65,29.53,12.3,41.29.33,5.92-2.31,12.24-1.13,19.57.81,5.04,4.98,8.88,5.48,12.54.59,4.33-2.37,9.88-1.78,15.62,1.22,11.8,4.92,24.65,3.55,38.26-.62,6.12-5.52,11.19-5.46,13.68.03,1.26,3.36.84,3.68,1.29,2.24,3.1-4.83,6.7-6.14,10.27-6.17,16.73-5.86,34.68-12.04,53.88-4.06,12.65-7.84,13.66-9.94,26.05-2.9,17.08-32.96,54.18-46.19,66.83-52.5,50.15-137.97,81.07-210.28,82.68-53.84,1.2-123.72,1.34-172.8-25.2-28.24-15.27-56.97-39.93-82.39-59.61-8.29-6.42-18.9-10.73-26.78-17.22-6.1-5.01-30.7-38.04-35.88-46.12-6.6-10.31-8.17-26.48-15.11-36.33-6.6-9.37-10.16-7.83-18.66-9.53-.57-.11-7.99-7.55-8.3-8.04-2.57-4.11-4.78-17.17-.8-19.66,2.35-1.47,11.03,2.16,7.69-5.26-.36-.8-13.83-8.51-15.03-8.98-4.71-1.87-1.35,4.8-4.95,3.97-1.87-9.78,3.62-3.98,7.53-6.42,3.68-2.3,2.08-9.25,14.43-3.57-5.8-34.62-9.71-67.79-8.04-103.11.38-7.95,1.28-17.76,2.33-25.62,6.97-51.81,40.87-134.82,78.65-171.34,46.13-44.58,143.04-72.1,206.31-79.69,85.74-10.29,188.39,30.34,251.46,87.06ZM388.33,118.12c-4.6-4.68-8.6,6.76-7.98,9.98,4.63,1.59,10.17-7.75,7.98-9.98ZM567.82,174.74c-3.14-3.14-55.73-32.04-63.4-35.72-18.52-8.87-48.5-17.46-69.03-19.03-3.09-.24-21.55-.37-23.98.04s-4.11.78-4.79,3.36c-.27,23.94.07,47.81-.21,71.78-.36,31.83,2.23,70.8-.67,101.67-.31,3.32-4.14,7.39-4.49,11.1s5.16,21.4,4.86,27.28c-.22,4.49-6.12,7.88-6.99,12.91s6.68,7.93,5.34,19.05l-8.14,26.91,6,.04c-5.21,13.63,6.13,14.55,3.9,26.88-2.2,12.18-1.64,22.41-2.71,35.76-.12,1.51-2.35,3.16-2.42,4.36-.24,4.28,10.47,9.35-.78,13.98,11.15,3.58,1.63,17.75,3.07,27.33.62,4.1,4.74,7.46,4.86,10.67.15,4.21-5.33,8.89-5.14,11.96.45,7.06,4.02,14.92,3.39,26.18-.44,7.8-6.18,8.99-.17,14.84-7.48-.56-1.74,3.8-2.21,7.15-4.69,33.12-11.88,70.71-7.88,103.96.76,6.32-.45,10.94-1.89,16.92,17.31-2.5,35.31,2.34,53.09,2.1,22.64-.32,81.63-7.49,99.43-20.02,28.62-20.14,49.68-40.74,73.34-67.14,20.82-23.23,45.09-47.45,56.21-77.84,12.93-35.3,11.07-61.02,10.85-95.99-.08-12.56,4.85-34.17-1.39-43.29-4.64-6.79,2.45-8.39,8.46-7.81,3.53-9.56-11.54-13.73-11.87-15.2-.75-3.29,1.48-6.58,1.18-9.5-.48-4.66-1.93-26.1-2.4-27.4-.6-1.64-4.46-3.72-5.81-6.01-18.46-31.12-28.69-68.46-49.08-96.9-13.04-18.19-42.57-38.38-58.54-54.35ZM350.33,138.12l-7.98.98,5.02,4.99c4.33.97,2.94-2.02,2.97-5.97ZM374.36,362.11c8.56-5.46,9.15-18.28-4.02-15.98,4.27,5.01,4.67,9.45,4.02,15.98ZM244.33,354.12c-11.15,1.95-8.65,2.63-3.95,9.96l3.95-9.96ZM103.08,435.25c-.9-.78-.52-5.49-2.78-2.11,2.21,15.13,3.54,29.3,8,44.04,2.52,8.33,7.23-3,8.02-7.06l-5.97,1.99c-.15-5.05,4.19-6.84,3.63-12.5-.16-1.62-4.17-18.65-4.62-19.55-.9-1.79-4.34-3.13-6.28-4.81ZM244.32,466.12c-7.91-2.29-5.51,12.36-3.97,13.99,4.96,5.24,5.57-12.17,3.97-13.99ZM384.36,532.11c6.7-1.79,4.77-23.83.98-23.96-3.85,2.08-1.07,5.24-2.11,7.77s-4.33,5.41-4.88,7.21c-.17.56,7.76,3.33,6.01,8.97ZM388.34,588.09c-7-15.17-1.54-32.14-4.28-48.72-.39-2.35-.59-9.3-3.7-9.25.47,8.3,1.88,16.52,1.78,24.85-.04,3.11-2.83,5.7-2.88,8.07-.04,2.06,2.28,31.94,9.07,25.05ZM176.34,574.13c-3.78-.66-6.66,2.33-5.98,5.98l5.98-5.98ZM210.17,630.25c-1.31-.91-7.45-1.15-5.81,2.83,1.03,2.49,18.4,16.76,19.97,15.02,1.29-1.43-.69-6.55-2.84-8.17-2.89-2.18-7.11-1.11-8.73-2.22-1.77-1.21-1.65-6.8-2.59-7.46ZM358.66,695.84c-.68-.86,1.99-18.58-1.3-21.71-3.23,3.32-13.47,4.46-15.01,8.99-.57,1.68,5.94.73,6.02,5.99.09,5.64-7.56,3.25-6.01,7.97l19.97,1.01c.85-3.35-2.83-1.2-3.67-2.25ZM376.35,702.1c1.94,2.09,9.13-3.76,2.96-5.97-4.22-1.51-3.64,5.23-2.96,5.97Z"/></svg>