<?xml version="1.0" encoding="UTF-8"?><svg id="Layer_1" xmlns="http://www.w3.org/2000/svg" viewBox="0 0 800 800"><defs><style>.cls-1{fill:#fff;}</style></defs><path class="cls-1" d="M412.23,390.27c-.85,9.24,0,20.45,0,30,0,.95-2.11,6.15-4.97,4.98-6.14-2.51-7.28-15.22-7.17-21.01.58-31.88,9.1-58.7,12.12-89.99,3.9-40.34,3.98-81.53,8.04-121.96,3.96-39.47,14.09-82.2,14.16-122,.02-15.61-7.04-20.48-20.85-12.6-.81.46-13.67,10.95-14.25,11.67-9.63,11.91-10.88,36.67-16.42,50.92,20.77,19.2.8,14.53-12.01,25.86,2.19,13.93-1.32,29.67-2.87,44-4.86,44.94-8.07,88.81-9.75,134.15-.66,17.89-2.4,21.17-5.32,36.26-.97,5.02-1.5,35.33-2.89,36.53-1.23,1.06-7.36-.23-9.81.2-5-28.07,2.53-55.06,3.99-83.03,2.11-40.33,4.97-79.55,8.8-119.62,2.81-29.35,10.28-52.1,2.36-81.16-2.28-8.36,1.42-22.01-15.23-5.28-8.1,8.13-19.67,39.29-22.92,51.08-6.89,24.94-3.49,54.26-5.21,80.62-2.08,31.75-5.52,61.86-6.95,93.64-.42,9.34-3.24,25.53-2.43,34.29.31,3.38,3.81,7.55,3.68,10.3-.05,1.07-3.38.82-3.97,2.62-1.77,5.38-3.03,19.13-3.69,25.55-.29,2.78,2.38,36.12-8.41,28.97-5.87-3.89-4.43-50.29-4.01-58.98,1.19-24.77,3.26-49.05,4-74,.22-7.45,3.55-17.39,2.86-25.33-.83-9.51-13.21-50.6-17.41-60.16-10.09-22.97-15.73-14.24-19.22,5.71-5.5,31.49-4.89,54.99-4.17,85.68.88,37.44-6.13,71.35-9.58,108.18-1.78,18.95-.74,40.04-3.4,59.03-1.77,12.6-9.52,34.7-9.26,44.87.22,8.5,13.74,46.85,17.75,56.41,18.97,45.19,47.37,93.76,68.52,139.48,1.66,3.58,1.06,9.72,3.89,12.11,10.18,8.61,60.55,8,74.98,6.97,9.69-.69,24.35-5.66,32.23-5.83,6.03-.13,12,5.45,16.76,2.96,4.06-2.12,6.2-11.06,9.15-14.99,23.21-30.84,19.55-39.53,30.27-73.73,29.04-92.68,73.8-194.89,83.51-290.11.79-7.73,3.51-36.62,2.63-42.82-3.79-26.74-29.51-5.29-38.62,6.45-16.26,20.97-17.41,45.52-26.53,67.47-1.73,4.16-7.87,10.65-8.1,11.9-.52,2.87,3.44,5.71,3.26,9.35-.15,2.86-4.94,17.69-4.65,19.46.71,4.34,6.55,13.21,11.09,14.88-4.45,6.73-19.72.3-21.7,6.31-2.05,6.22.78,35.21,1.8,43.6.51,4.19,3.82,6.76,3.82,11.91,0,7.18-6.74,10.72-10.95,5.23-.91-1.18-6.62-25.68-6.97-29.01-4.22-39.8,9.48-81.58,13.8-120.23,1.97-17.63.25-37.88,2.23-55.77,5.52-49.84,19.78-108.65,15.94-157.99-.91-11.73-7.25-39.36-23.81-34.03-1.51.49-11.07,6.61-12.27,7.98-5.54,6.32-10.18,16.43-14.13,23.38-5.39,9.48-5.94,7.12-11.73,12.64s-1.65,11.71-2.51,17.35c-5.44,35.96-10.83,66.18-13.51,102.67-2.34,31.87,1.29,66.51-9.49,94.52-1.59,4.12-4.11,17.01-4.52,21.47Z"/></svg>